/* XPM */
static char *_9db77f8258d4abf8eecb93b1c64430e6AGHaHhN4gE1x9Wp[] = {
/* columns rows colors chars-per-pixel */
"64 64 177 2 ",
"   c None",
".  c #0C5555",
"X  c #0C5857",
"o  c #0D5D5C",
"O  c #115454",
"+  c #115C5C",
"@  c #195C5C",
"#  c #146363",
"$  c #1A6565",
"%  c #176968",
"&  c #1A6C6B",
"*  c #1E706F",
"=  c #1F7271",
"-  c #206262",
";  c #226E6D",
":  c #2C6D6D",
">  c #227574",
",  c #287777",
"<  c #257877",
"1  c #257A79",
"2  c #2A7D7D",
"3  c #387778",
"4  c #317B7B",
"5  c #2A807F",
"6  c #38807F",
"7  c #278283",
"8  c #2D8383",
"9  c #2F8888",
"0  c #328383",
"q  c #3B8586",
"w  c #328C8D",
"e  c #3F8D8D",
"r  c #338F90",
"t  c #349393",
"y  c #3A9595",
"u  c #369798",
"i  c #36999A",
"p  c #399C9D",
"a  c #3A9FA0",
"s  c #3BA3A4",
"d  c #3EA7A8",
"f  c #3FAAAB",
"g  c #4B8586",
"h  c #418A8A",
"j  c #4A8D8E",
"k  c #538F91",
"l  c #449191",
"z  c #4B9595",
"x  c #469799",
"c  c #419D9E",
"v  c #4E9E9F",
"b  c #539394",
"n  c #5B9596",
"m  c #529B9C",
"M  c #5A9B9D",
"N  c #629799",
"B  c #609D9E",
"V  c #4A9FA0",
"C  c #44A1A2",
"Z  c #4CA3A4",
"A  c #41A7A8",
"S  c #4BA7A9",
"D  c #41ACAE",
"F  c #4AABAC",
"G  c #59A1A3",
"H  c #53ADAF",
"J  c #42AFB1",
"K  c #4EAFB1",
"L  c #53AFB1",
"P  c #5CAEB0",
"I  c #44B3B5",
"U  c #4AB2B4",
"Y  c #46B7B9",
"T  c #49B6B8",
"R  c #47BABB",
"E  c #49BBBC",
"W  c #57B2B4",
"Q  c #5CB5B7",
"!  c #53B7B9",
"~  c #5EB6B8",
"^  c #56BCBE",
"/  c #5ABBBD",
"(  c #64A3A4",
")  c #68A1A3",
"_  c #66A7A9",
"`  c #6DA6A8",
"'  c #65A9AB",
"]  c #6AAAAC",
"[  c #65AFB0",
"{  c #6EAEB0",
"}  c #66B5B7",
"|  c #6BB2B4",
" . c #63B6B8",
".. c #6BB7B9",
"X. c #64BABC",
"o. c #6DB9BB",
"O. c #73B4B5",
"+. c #7CB3B5",
"@. c #71B7B9",
"#. c #72B9BB",
"$. c #7CBCBE",
"%. c #4BBFC1",
"&. c #52BEC1",
"*. c #5CBFC1",
"=. c #76BEC0",
"-. c #4DC1C3",
";. c #54C3C6",
":. c #59C4C6",
">. c #56C5C8",
",. c #5CC6C9",
"<. c #64C2C5",
"1. c #6BC0C2",
"2. c #62C7C9",
"3. c #6AC7C9",
"4. c #66C9CB",
"5. c #6ACACC",
"6. c #74C2C5",
"7. c #7AC1C4",
"8. c #74C6C8",
"9. c #7AC7C9",
"0. c #74CBCE",
"q. c #79C9CC",
"w. c #76CED0",
"e. c #7BCED1",
"r. c #7DD0D3",
"t. c #88BEC0",
"y. c #85C3C5",
"u. c #8BC3C6",
"i. c #8CCCCE",
"p. c #90C0C3",
"a. c #92CBCE",
"s. c #99C9CC",
"d. c #82CED1",
"f. c #96CDD0",
"g. c #83D0D4",
"h. c #8BD3D6",
"j. c #8FD5D8",
"k. c #94D3D7",
"l. c #9BD4D7",
"z. c #94D6D9",
"x. c #99D7DB",
"c. c #9CD9DC",
"v. c #A6C3C3",
"b. c #A0CBCC",
"n. c #A0CDD0",
"m. c #A0D4D7",
"M. c #A3D6D9",
"N. c #A4DBDE",
"B. c #A8DBDE",
"V. c #B2DCDF",
"C. c #A6DCE0",
"Z. c #ACDEE2",
"A. c #B1DFE3",
"S. c #AFE0E3",
"D. c #AFE0E4",
"F. c #B0E0E3",
"G. c #B4E0E3",
"H. c #B1E0E4",
"J. c #B2E1E5",
"K. c #B3E2E6",
"L. c #B5E2E6",
"P. c #B4E1E5",
"I. c #B8E3E7",
"U. c #B9E3E7",
"Y. c #B8E1E5",
"T. c #BAE3E7",
"R. c #BBE4E8",
"E. c #BEE5E9",
"W. c #BEE6EA",
"Q. c #BDE5E9",
"!. c #C1E0E1",
"~. c #C0E6EA",
"^. c #C2E7EB",
"/. c #C1E7EB",
"(. c #C6E9EB",
"). c #C3E8EC",
"_. c #C3E8EC",
/* pixels */
"                                                                                                                                ",
"                                                                                                                                ",
"                                                                                                                                ",
"                                                                                                                                ",
"                                                                                                                                ",
"                                                                                                                                ",
"                                                                                                                                ",
"                                                                                                                                ",
"                                                                                                                                ",
"                                                                                                                                ",
"                                                                                                                                ",
"                                                                                                                                ",
"                                            d s s s s s s s s s s s s s s s s a s d                                             ",
"                                      J J f D f D f f D D D D f f D f J J f f J J f J J J J                                     ",
"                                R Y Y Y Y Y Y Y Y Y R R Y Y Y R R Y Y T Y R Y Y R R R R Y Y R E R                               ",
"                            R -.;.-.-.-.-.-.;.-.-.-.-.-.-.-.-.-.-.-.-.-.%.-.%.;.%.%.%.&.-.-.:.;.-.R 8                           ",
"                          E R &.4.4.4.4.4.4.4.4.4.4.4.4.4.4.4.4.4.4.4.4.4.4.4.4.4.4.4.4.5.4.w.r.<.t > @                         ",
"                        %.:.-.R <.d.g.d.g.g.r.g.g.g.g.g.r.g.g.g.r.g.g.g.g.g.g.g.g.r.g.g.g.g.z.z.v > 1 ; O                       ",
"                      :.2.0.:.-.E q.k.z.z.c.c.c.c.x.x.x.x.x.x.x.x.x.x.x.x.x.x.c.c.c.c.c.c.B.(.b.q 0 0 8 $ #                     ",
"                    w.5.h.r.5.>.I X.m.u.#.o.7.i.k.c.B.Z.S.F.F.F.J.J.J.F.Z.B.m.a.u.$.O.{ #.y.!.v.B n l w 1 % >                   ",
"                  h.d.h.N.z.e.Q i <.C.~.A.a.o.L U T ,.0.h.c.S.I.n.+.` M j q 4 , 1 9 p A f J _ g > 5 9 t t 1 < 7                 ",
"                N.z.j.D.J.c...w D -.w.I.Q.~.Q.A.z.0.:.,.5.g.z.S.b X X + o % 6 v } <.:.E I s h 6 & * 9 y p r 7 9 t               ",
"              U.A.N.N.(.U.@.w y R R E c.S.D.G.P.I.I.S.c.z.z.x.S.k . # 3 B u.x.x.g.5.;.R I u q q , > < t s d t t p d             ",
"              ~.U.Z.R.A...t t d J D I 8.c.N.B.B.C.C.S.S.S.S.S.F.( n p.V.).W.Z.z.r.5.-.R J t w w w 9 2 9 p f d p d J             ",
"              U.~.Q.B.~ p i p s d d d U h.k.z.x.x.x.c.N.N.B.k.| W j.W.(.).U.B.z.e.4.-.E D y y t i i t r u d I D D               ",
"                P.c.&.f d i u i i i p p 1.g.h.g.h.j.h.j.h.6.V r K &.1.x.W.U.B.j.e.4.-.R f s s d d d d p s D R T y               ",
"                  2.E I D t r w t t y y S 0.0.w.0.r.d.8.K p t r Q 4.R U =.B.N.j.e.,.-.R I I I Y R E E Y D I R y                 ",
"                    ;.E i 9 9 9 9 9 r 9 t :.4.4.3.3./ A s i t r o.g.:.R d F =.g.e.,.%.E ;.;.>.,.2.4.3.0.:.-.y                   ",
"                      T w 8 2 0 7 7 8 8 9 d ;.;.;.T D s p i t r $.x.0.;.Y s i Z *.,.%.3.e.e.e.h.h.h.z.z.h.x                     ",
"                      &./ Q U D S _ M z h y E E I f d s p i t r y.F.j.5.-.I s t r V ^ x.C.Z.Z.Z.j.h.h.g.'                       ",
"                        ;.:.>.-.,.S.E.Y.V.M.N.z.g.8.X.W S c y r y.~.N.9.! d t 7 > % ] Q.~.).).N.4.4.5.X.:                       ",
"                          R %.%.E 0.E.).).).E.G.P.J.F.B.N.l.i.y.] b q 1 * % % # # & s.).~.).L.5.>.2.*.0                         ",
"                            I R Y R x.W.R.A.Z.C.N.C.C.C.C.C.C.C.m & & * & & % % % h C.U.R.~.g.-.-.-.t                           ",
"                            d I I I / C.Z.N.x.x.x.x.z.z.z.z.j.z.v > > > = * * * & ] c.N.Z.c.;.%.-.s                             ",
"                              s J J D =.x.h.h.d.h.h.d.h.d.h.g.g.v < < , < > = = 0 8.h.z.z.<.I E d 1                             ",
"                                a d d F q.e.w.4.0.e.e.w.w.w.w.w.V 5 5 1 1 1 < < p 5.0.r.8.U I f 7                               ",
"                                  p s a K 4.,.;.:.4.5.4.4.4.4.4.C 8 8 8 7 5 5 5 U ;.,.4.T f f t                                 ",
"                                    i p p T %.%.R ;.:.:.;.-.;.;.s 9 9 8 0 8 8 r R E -.I d d i                                   ",
"                                    w t u a I I J R %.%.-.%.%.-.s w w w w 9 9 p Y Y I s s p                                     ",
"                                      9 t t a J f f R %.R R R R s t t r r w r s f f s p p 9                                     ",
"                                        9 w w s s p f Y I I I I s i u u t t u a a a u i t                                       ",
"                                          8 9 w i y s f f f f f d a a p i u t u u t t t                                         ",
"                                            7 9 w w r s f s d d d d s s a p w r r r r                                           ",
"                                            , 1 2 9 9 t s s s p d D D A d t 8 w 9 r                                             ",
"                                              > 1 2 2 9 i p i i A I f I f 8 5 8 9 r                                             ",
"                                                = , 1 1 9 t y t f R R R a = 1 5 w                                               ",
"                                                  * = = 7 r w w J -.-.R 7 * 5 9                                                 ",
"                                                  % & % & 9 w 9 F ,.;.f * * 5                                                   ",
"                                                    $ % # 1 9 9 L 4.5.w # 1 r                                                   ",
"                                                      # o $ 2 5 P r.=.& % 8                                                     ",
"                                                        + + , 1 [ j.G # =                                                       ",
"                                                          O $ < | z.3 %                                                         ",
"                                                          . O & O.t.-                                                           ",
"                                                            O @ O.N $                                                           ",
"                                                              + ) g                                                             ",
"                                                                g                                                               ",
"                                                                                                                                ",
"                                                                                                                                ",
"                                                                                                                                ",
"                                                                                                                                ",
"                                                                                                                                ",
"                                                                                                                                ",
"                                                                                                                                ",
"                                                                                                                                "
};
