/* XPM */
static char *_a7c891672e547aadaab92045c8ae757l6bbpD8m0TzpDakb[] = {
/* columns rows colors chars-per-pixel */
"64 64 156 2 ",
"   c None",
".  c #5768DF",
"X  c #4766EE",
"o  c #4B67EF",
"O  c #4D69EF",
"+  c #566AE5",
"@  c #5968E2",
"#  c #536CEE",
"$  c #586FEF",
"%  c #5371EE",
"&  c #5976EC",
"*  c #4B6EF0",
"=  c #556EF1",
"-  c #586FF0",
";  c #4C74F1",
":  c #4D7BF2",
">  c #5573F2",
",  c #5C73F2",
"<  c #557CF4",
"1  c #5D7CF4",
"2  c #6676E9",
"3  c #6176F3",
"4  c #657BF3",
"5  c #687EF4",
"6  c #4D83F4",
"7  c #4F8EF7",
"8  c #5684F5",
"9  c #5C84F6",
"0  c #528CF5",
"q  c #598BF4",
"w  c #5789F8",
"e  c #5A8DF8",
"r  c #5291F7",
"t  c #5C93F6",
"y  c #569BF7",
"u  c #5A98F6",
"i  c #5790F8",
"p  c #5894F9",
"a  c #539BF8",
"s  c #599CFB",
"d  c #7182EE",
"f  c #768EEE",
"g  c #7B8EEE",
"h  c #7A99EF",
"j  c #6584F4",
"k  c #6A82F5",
"l  c #658AF5",
"z  c #6D8BF5",
"x  c #6F84F8",
"c  c #6E89F9",
"v  c #7386F3",
"b  c #738FF7",
"n  c #798FF3",
"m  c #7087F9",
"M  c #748CFC",
"N  c #6291F3",
"B  c #6D93F6",
"V  c #6D99F7",
"C  c #7095F5",
"Z  c #7A91F5",
"A  c #749CF7",
"S  c #7692FB",
"D  c #7993FA",
"F  c #759BFA",
"G  c #7A9CFA",
"H  c #57A3F9",
"J  c #59A6FA",
"K  c #5DAAF9",
"L  c #7BABEB",
"P  c #64A6F7",
"I  c #62A6F8",
"U  c #77A2F7",
"Y  c #7CA5F7",
"T  c #74ABF6",
"R  c #73A6F9",
"E  c #7BA4FA",
"W  c #75ADF9",
"Q  c #7DAAFA",
"!  c #65B6FB",
"~  c #64B8FA",
"^  c #6CBCFA",
"/  c #77B6FA",
"(  c #7CB2FB",
")  c #7CBDFA",
"_  c #6BC0FB",
"`  c #7CC5FA",
"'  c #7ACFFC",
"]  c #899AEF",
"[  c #8794FE",
"{  c #8996FE",
"}  c #819CFB",
"|  c #8B9AFE",
" . c #82A6F6",
".. c #8EA5F5",
"X. c #87AAF7",
"o. c #8AACF7",
"O. c #85A5FB",
"+. c #8BA4FE",
"@. c #82ADF9",
"#. c #8DABFC",
"$. c #93A3F1",
"%. c #90AAF7",
"&. c #9AACF7",
"*. c #92A2FE",
"=. c #92ADFD",
"-. c #9BAFFE",
";. c #8DB9F0",
":. c #83B2FA",
">. c #8DB5FB",
",. c #85BCFC",
"<. c #89BDFB",
"1. c #95B6F7",
"2. c #93B4FD",
"3. c #9DB2FE",
"4. c #94BCFE",
"5. c #9FB9FE",
"6. c #A2B5FE",
"7. c #A5BAFE",
"8. c #AABCFE",
"9. c #85C2FC",
"0. c #8AC2FB",
"q. c #83CDFB",
"w. c #8CCFFD",
"e. c #94C3FD",
"r. c #9AC5FD",
"t. c #94CCFC",
"y. c #9BCCFE",
"u. c #81D0FC",
"i. c #8CD2FC",
"p. c #8BDAFD",
"a. c #97D1F4",
"s. c #9BDBF6",
"d. c #95D4FC",
"f. c #9DD3FE",
"g. c #92DAFD",
"h. c #9CDCFE",
"j. c #A0CFF5",
"k. c #A5C4FE",
"l. c #AEC3FE",
"z. c #A2C9FE",
"x. c #ABCAFD",
"c. c #B2CDFE",
"v. c #ABD5FE",
"b. c #A6DFF9",
"n. c #ADDBFE",
"m. c #B4D8FE",
"M. c #96E2FD",
"N. c #9DE3FB",
"B. c #A2E3FD",
"V. c #AAE3FD",
"C. c #A5EBFD",
"Z. c #A9EDFC",
"A. c #B1E2FD",
"S. c #B7E8FE",
"D. c #ACF3FD",
"F. c #BCF1FD",
/* pixels */
"                                                                                                                                ",
"                                                                                                                                ",
"                                                                                                                                ",
"                                                                                                                                ",
"                                                                                                                                ",
"                                                                                                                                ",
"                                                                                                                                ",
"                                                                                                                                ",
"                                                                                                                                ",
"                                                                                                                                ",
"                                                                                                                                ",
"                                                                                                                                ",
"                                                                                                                                ",
"                                                                                                                                ",
"                                                                                                                                ",
"                                                                                                                                ",
"                                                                                                                                ",
"                                                                                                                                ",
"                                                                                                                                ",
"                                                                                                                                ",
"                                                                                                                                ",
"                                                                                                                                ",
"                                                                                                                                ",
"                                  j.b.Z.D.D.D.D.D.D.D.D.D.C.C.C.C.N.B.N.N.N.N.N.N.N.N.s.a.;.                                    ",
"                                r.f.h.B.C.D.D.D.D.D.D.D.D.C.C.C.C.N.N.h.g.f.g.d.d.t.0.@.G D n                                   ",
"                                r.f.f.h.B.V.B.B.B.B.h.f.f.y.r.t.w.<.@. .G G D D S D z m M M M v                                 ",
"                              1.e.y.y.f.v.v.v.f.f.t.y.e.e.2.2.<.<.:.Y A M M M S S F j 5 M M M m                                 ",
"                              2.4.4.r.k.x.z.e.4.4.4.2.2.2.#.>.@.@.:.Q G b M M S F E 4 3 x m M M v                               ",
"                            =.2.>.2.5.7.7.5.=.=.+.+.+.+.| #.@.G G @.:.Y D M M S E Y 1 , 4 x M M M                               ",
"                            #.#.=.3.6.6.6.3.*.| | { | { | #.D M S Y :.Y D S m S G E > > 4 5 m M M d                             ",
"                          ..=.#.3.6.6.-.6.-.*.| { { { | #.G M b b D Y @.G M b S G E - - 3 5 5 m M v                             ",
"                          #.>.3.3.6.6.6.6.-.*.{ { { { *.O.M M m v b G Q  .D M b G E > = 3 4 5 5 m M v                           ",
"                        ..=.3.6.6.6.6.6.6.-.*.| { { +.&.M M M v M M b G  .G M M G U > = 1 4 5 4 5 M M                           ",
"                        #.=.6.6.6.8.6.6.6.-.*.| { | 3.} M M M M M M M M E Y D S G U > = 1 4 5 5 4 5 m m                         ",
"                      ..2.6.6.6.8.6.6.6.6.6.*.{ { 3.%.M M M M m M M m b G Q Y D Q Q < > 1 5 5 5 5 5 5 m                         ",
"                      %.6.6.7.6.8.8.8.6.6.6.*.| %.7.M M m M M m M M M M F Q :.Q @.( w 8 9 k k 4 4 5 5 m v                       ",
"                    $.3.6.8.8.8.8.8.6.8.8.k.2.=.x. .M v M M M M M M M S G Q ,.9.,.) i w N l j 4 4 4 5 5 5                       ",
"                    &.6.6.8.8.8.8.8.8.l.c.v.z.v.r.G S M M M M M M M M S G Q ,.w.g.` s p e 9 1 < - 3 3 3 4 2                     ",
"                    ] O.+.+.3.6.8.8.l.c.m.A.A.V.,.W D M m m m M m M S F E ( 9.i.M.u.K s p w < > - = = = #                       ",
"                      Z S S D D } +.2.z.n.S.F.B.d.e.>.o.X.#.#.O.O.O.O.:.,.0.w.g.N.p.^ ! I p 8 ; o o o O                         ",
"                        Z M M D M D E ,.w.N.C.p.t.e.;.o.o.X.X. .Y  . .@.,.9.i.g.M.' ~ K y 0 : * X o #                           ",
"                          Z M M M M G @.,.w.p.^ u q > # # # = - - , 4 l V T ) ' p.~ H a 7 6 ; X o # @                           ",
"                            Z M S M D G Q ,.9./ q < > = $ - - - , , 4 l B R / q.` H a 7 6 : ; O # +                             ",
"                              Z M M D D F G Q Q 9 > # # - - , - , 1 4 j V A T ) K r 7 6 6 ; ; % +                               ",
"                                D M D M M D D G l = # # - - - - , 4 4 j z V R T 0 6 6 : : ; % #                                 ",
"                                ] D M M M M M M z > = $ - - , , , , 4 k l z U N : ; ; ; * # %                                   ",
"                                  v M M M M S M S 4 = $ - - - , , 3 4 j k z C & O * * ; ; #                                     ",
"                                    Z D M S M M D k - = = - - , 4 1 4 4 k z j O O O O O #                                       ",
"                                      n M M M M M M , , - - - , & 4 4 5 k z > o o o O # @                                       ",
"                                        D D D M M D 5 - - - - 3 , 4 4 k k j O o o # # @                                         ",
"                                          D M M M S c , - - - , 3 4 5 5 l & o o O # #                                           ",
"                                            D M M S c 4 3 - , 3 3 4 4 k j # o O # #                                             ",
"                                              D M M S k , , , 3 4 4 5 k , o o # #                                               ",
"                                              g S S S c 4 , 3 3 3 4 5 4 = o # #                                                 ",
"                                                n S M M k 3 3 3 4 4 k & O # #                                                   ",
"                                                  n S S c 4 3 4 4 5 5 # O # .                                                   ",
"                                                    S S M k 4 4 4 4 , # # +                                                     ",
"                                                      S S z 5 4 4 5 > # #                                                       ",
"                                                        S S z 5 k j > #                                                         ",
"                                                          S F z B j &                                                           ",
"                                                          f E G R l                                                             ",
"                                                            h W T                                                               ",
"                                                              L                                                                 ",
"                                                                                                                                "
};
