/* XPM */
static char *f6b77f58f6584ce6ebe5e986a1fb41bftdOrrvMv4xWsLOVc[] = {
/* columns rows colors chars-per-pixel */
"64 64 222 2 ",
"   c None",
".  c #3A3B5B",
"X  c #363C5B",
"o  c #3D3F60",
"O  c #413E61",
"+  c #35405F",
"@  c #364162",
"#  c #3A4364",
"$  c #364C6E",
"%  c #394C6E",
"&  c #394668",
"*  c #394E71",
"=  c #3B557A",
"-  c #434164",
";  c #48466D",
":  c #47456A",
">  c #4D4B75",
",  c #4E4E79",
"<  c #504F7A",
"1  c #504D75",
"2  c #53527B",
"3  c #5A587D",
"4  c #4E5376",
"5  c #054D9E",
"6  c #07519E",
"7  c #3D5D83",
"8  c #074FA0",
"9  c #0751A1",
"0  c #0B54A3",
"q  c #0E59A9",
"w  c #0E58A6",
"e  c #125AA6",
"r  c #135CAB",
"t  c #175DA9",
"y  c #1661AD",
"u  c #1A64AD",
"i  c #1A65B3",
"p  c #1E6AB4",
"a  c #1A65B4",
"s  c #2468AD",
"d  c #216BB6",
"f  c #226DBA",
"g  c #2B6FB2",
"h  c #2571BD",
"j  c #2B74B7",
"k  c #3274B4",
"l  c #3B7CB9",
"z  c #3479B9",
"x  c #3E608A",
"c  c #565582",
"v  c #595783",
"b  c #5A5985",
"n  c #5D5C8B",
"m  c #505F8D",
"M  c #615E8E",
"N  c #605F86",
"B  c #615E90",
"V  c #426C97",
"C  c #43729D",
"Z  c #50638B",
"A  c #626186",
"S  c #656489",
"D  c #6B6A8E",
"F  c #68678A",
"G  c #636194",
"H  c #6E6D91",
"J  c #666499",
"K  c #6B699E",
"L  c #68669C",
"P  c #737293",
"I  c #7C7B9C",
"U  c #797897",
"Y  c #706E96",
"T  c #527FB2",
"R  c #4B7DAD",
"E  c #6C6BA3",
"W  c #6F6EA8",
"Q  c #716DA7",
"!  c #716FA9",
"~  c #7271AA",
"^  c #7776B3",
"/  c #7976B3",
"(  c #7779B5",
")  c #787AB6",
"_  c #7A7DBB",
"`  c #2B77C3",
"'  c #2B78C7",
"]  c #327ECB",
"[  c #357DC3",
"{  c #357FD1",
"}  c #7C7FC0",
"|  c #4884B9",
" . c #5286BA",
".. c #5089BC",
"X. c #5382B5",
"o. c #7B83BE",
"O. c #648EBD",
"+. c #3481CE",
"@. c #3B84C6",
"#. c #3683D2",
"$. c #3986D4",
"%. c #3C89D7",
"&. c #3D8BD9",
"*. c #3A86D8",
"=. c #4D8DC2",
"-. c #4587C5",
";. c #518DC2",
":. c #5E8CC7",
">. c #5D8EC8",
",. c #4994CB",
"<. c #5392C5",
"1. c #5494CB",
"2. c #5B98CB",
"3. c #418EDA",
"4. c #438CD4",
"5. c #4493DC",
"6. c #4A96D9",
"7. c #549CDC",
"8. c #599CD6",
"9. c #628AC4",
"0. c #6589C3",
"q. c #7C83C3",
"w. c #7B8ACA",
"e. c #7A8AC9",
"r. c #788FD1",
"t. c #6B9BD9",
"y. c #7493D4",
"u. c #7892D3",
"i. c #7696D9",
"p. c #739BDD",
"a. c #7F9CD0",
"s. c #7097CA",
"d. c #5BA1DD",
"f. c #59A4D5",
"g. c #66A2CD",
"h. c #68A6D8",
"j. c #66B3DE",
"k. c #79B5D9",
"l. c #71AED6",
"z. c #4A9AE2",
"x. c #4696E1",
"c. c #559EE0",
"v. c #4EA1E8",
"b. c #5CA5E3",
"n. c #53A5EA",
"m. c #56A9EB",
"M. c #5CB1EE",
"N. c #5DB3F2",
"B. c #5AAFF2",
"V. c #64A5E3",
"C. c #67A8E3",
"Z. c #66B5E2",
"A. c #65B9E4",
"S. c #6CBDE5",
"D. c #68B2E9",
"F. c #72B3E5",
"G. c #78BAE6",
"H. c #63B6F3",
"J. c #65BAF3",
"K. c #6BBDF4",
"L. c #72BEF2",
"P. c #78C4EC",
"I. c #78C6EB",
"U. c #72C4F5",
"Y. c #7BC5F4",
"T. c #78CBF8",
"R. c #7ED3FA",
"E. c #6FC3F2",
"W. c #82819F",
"Q. c #8785A1",
"!. c #828BC7",
"~. c #8194CC",
"^. c #8399CF",
"/. c #829CD2",
"(. c #8197D0",
"). c #909BD0",
"_. c #83A3D6",
"`. c #84AADB",
"'. c #83BADC",
"]. c #84BAE3",
"[. c #86B9E4",
"{. c #8BC3E4",
"}. c #85C3EA",
"|. c #8AC4EB",
" X c #8DCBED",
".X c #85C4E6",
"XX c #92CCEB",
"oX c #94CAE5",
"OX c #9BD3EC",
"+X c #84CBF5",
"@X c #8ACDF4",
"#X c #80C7F4",
"$X c #8CD2F4",
"%X c #86DBFB",
"&X c #8ADEFD",
"*X c #88D7F7",
"=X c #93D5F5",
"-X c #9BDAF6",
";X c #9CDCF9",
":X c #96D8F6",
">X c #92CEF1",
",X c #A6DAED",
"<X c #A4DDF4",
"1X c #A2DEF9",
"2X c #94E2FC",
"3X c #9CE4FC",
"4X c #8EE0FD",
"5X c #ACE2F5",
"6X c #A3E3F9",
"7X c #ABE4F9",
"8X c #ABE9FC",
"9X c #AAE6F7",
"0X c #B3E5F4",
"qX c #B4EBFA",
"wX c #BBEEFB",
"eX c #B7E9F7",
"rX c #BDF0FC",
"tX c #B6F1FD",
"yX c #ACE0EF",
"uX c #84C2DF",
"iX c #C3F3FC",
"pX c #C9F7FE",
/* pixels */
"                                                                                                                                ",
"                                                                                                                                ",
"                                                                                                                                ",
"                                                U D S b b v v c v 3 3 b A D U                                                   ",
"                                        S b b 2 2 2 2 < 2 2 2 2 2 2 2 2 2 < < 2 v b A H                                         ",
"                                  S 3 2 2 < 2 2 2 2 2 2 2 2 2 c c 2 c 2 2 < 2 2 2 2 2 2 3 A H                                   ",
"                            P b 2 < 2 2 2 2 2 c b G J E ! ! ~ ~ ~ ~ Q E L B n c 2 < 2 2 2 < 2 v F                               ",
"                        P b 2 2 2 2 2 2 c G E ^ ) _ q.e.r.y.y.y.y.y.y.e.q.q._ ~ E J v 2 2 2 2 2 2 3 F                           ",
"                      A 2 2 2 2 < 2 n E ~ _ q.u.t.8.8.2... .| | R | ;.1.8.h.V.u.e.} / E n c < 2 c 2 , 3 U                       ",
"                    3 < 2 2 2 2 n E ) q.y.t.8...V m * # # O O - # - - # $ 4 V | 8.d.t.q.) Q B 2 2 2 2 2 3 S                     ",
"                P 3 < 2 2 2 v L ^ q.t.h.;.V & o O ; > < 2 2 2 2 2 2 < < < ; : + $ 7 | h.t.e._ E b 2 2 2 , < A                   ",
"              H 2 2 2 2 2 b ~ } y.V.=.7 o - > < 2 2 v b n G J J J B B n v 2 2 < > - o * | d.t.q.^ B c 2 2 2 < A                 ",
"            U 3 < 2 2 , B ^ q.V.8.7 X - > < 3 b J E ~ o.!.^./.a././.!.o.) Q G b c < < : . = <.V.r.^ E 2 2 2 2 < S               ",
"            b , 2 < c B ) r.V.R # . < 2 2 n E ) !.`.].|.S.h.f.8.f.f.j.S.].`.a.o.W B 2 2 < - X C V.y.) E c 2 2 2 2 D             ",
"          D , 2 2 2 B ^ y.b.C o : 2 2 b E _ ^.k.S.OX8XuXd 6 0 0 w e t i j ,.I.{./.o.W n 2 2 > . m 8.t._ E c 2 2 2 2 U           ",
"        I < 2 2 2 b W r.b.V X ; 2 4 B ^ w.].j.[ l OXrX2.r 0 r p d f p p y y 2.tX3X|./.) J 2 < > X = 7.i.) L 2 2 2 > S           ",
"        S < 2 2 c E e.V.C X > < 2 J _ _.G.,.y 0 h XX5X@.r ` { #.+.+.` h h d l.eX'.,.E.`.q.K c 2 > X 7 d.r./ B < c 2 , ~         ",
"        < 2 2 < B ( V.R . : 2 2 J _ `.S.k 6 6 0 a l.eX;.p $.3.3.%.%.&.$.] @.k.<.6 6 u j..Xw.K 3 2 > X C V.} ! c < 2 , S         ",
"      U , 2 2 c E y.8.$ o < 2 B _ `.S.d 9 0 6 6 q ] oX,XG.D.D.B.v.z.5.*.&.d.7.f w 6 8 y j.}.q.L 2 2 - + =.t._ J < 2 2 ,         ",
"      b 2 2 2 n ( p.V . > 2 v ^ a.I.j r i w 9 y a p 7.<XpX8X#XY.+XJ.B.b.C.j.%.#.i 6 0 6 u S.'.o.B 2 2 . 7 h.r.W b < 2 , W.      ",
"      2 2 2 2 L r.>.$ # 2 4 K o..X,.0 p f y r #.&.&.n.J.=XqX<X=XeX;X$X7X:Xc.*.%.h 0 r 0 6 2.&X_.W 2 2 : @ ;.p.( G 2 2 < H       ",
"      , 2 2 c E i.R o ; 2 b ^ `.E.y y h p y h &.&.&.n.N.N.+XwXiX7X1XqXiX@Xn.x.*.p i #.f u oX3X Xo.M 2 > . V V.q.K 2 2 < N       ",
"    Q.> c < v ^ i.x . 2 4 G o.{.,.w p h y y +.&.%.%.5.B.N.H.<X+XJ.U.&X7XY.N.n.&.a r ] %.'.rX8X4X/.L 2 < O = t.r.! c < 2 3       ",
"    Q.> 2 2 b ^ s.= . 2 2 K w.@Xj u f a 0 y $.&.%.%.%.z.H.+X+XH.K.%X&X6XT.N.N.x.` y 1.OXrXpXtX2X].~ c 2 O & 1.p.^ b < < 3       ",
"    W.> 2 2 n _ 0.* - 2 < W a.T.p p a w e a $.%.%.3.V.F.#XY.H.N.T.4X4X3X4XJ.N.H.F.G.oX,XeXiXrX2X}.( c 2 ; @ <.p.) n < 2 2       ",
"    Q.> 2 2 B _ 0.$ - 2 c ~ _.+X..p 0 w i a $.%.7.G.C.7.m.N.N.N.R.&X4X3X3XK.+X}.V.7.z u | ,XiX3X}._ b 2 ; @ <.p.) n < 2 2       ",
"    Q.> 2 2 n _ 0.% - 2 3 W /.2XeXOX2.l z @.C.G.OXF.z.n.B.N.N.N.R.%X&X3XeX-X$Xn.%.*.i 8 u ,XeX:X+X_ b 2 ; @ ;.p.^ B 2 2 3       ",
"    W.> 2 2 n _ 0.* O 2 2 Q /.4XyXoXk.g.g.>XqXiX1XH.N.N.H.N.N.N.U.%X4X3XiX<XJ.v.3.{ r 8 2.eXk.S. X) b 2 ; @ ;.C.^ n < 2 3       ",
"    W.> 3 < n o.O.$ : < c ! /.Y.j u d r f M.+XqX:XH.N.N.N.N.N.N.K.&X2X8XrX@XN.v.3.@.l g.yXk.d A.}.( b 2 ; # ;.p./ n < 2 3       ",
"    W.> 2 < n _ 0.$ O < c ! /.I.y y h y d v.N.$X=XH.N.N.N.N.N.H.T.8XwXrXwX$XB.D.G.].oXwX.Xg w A.|._ n 2 ; @ ;.p./ n < 2 c       ",
"    ~ > 2 2 M o.0.* O c 2 ! /.I.u p d r h &.6.T.:XL.T.R.T.H.N.+XqX6X2X2X8X7X:X|.h.d k {.-.0 0 A.}.( b < ; @ <.p./ n < 2 3       ",
"    W.1 2 2 S _ 0.& O 2 2 ! (.Y.u d u e +.%.%.D.1X6X&X2X4X%X*XtXrX2X&X&X&X8X7XV.' 6 k k.d 9 w A.}.( n 2 ; # ;.p./ n 2 < b       ",
"    I > 2 2 M } 0.* - 2 2 ! (.I.i r q f 3.%.*.b.-X;X6X8X8X8XrXiXqX8X3X&X%X-X=Xv.` 5 | g.t 8 w A.}.) b 3 ; & =.p.^ n < < N       ",
"    I , 2 2 B _ 9.* - 2 3 ! (.I.y 8 q { 3.%.*.b.7X=XU.*X2X3XtXwX3X3X8X3X&X1X=Xm.#.q -.<.e 8 0 A.[.) c 2 ; @ =.p.^ n < < v       ",
"    U , 2 2 B } 9.* - 2 c W ~.P.u 6 r { *.%.*.F.wX:XH.J.%X&XtXwX6X2X3X2X1XiX6XM.5.' l.g.w 6 0 A.].( b 2 ; @ ;.p.^ n 1 < b       ",
"    U > 2 2 M q.0.* - 2 2 W ~.P.u 0 r { &.*.6.OX7XL.B.H.&XwXqX2X%XU.H.H.H.@X1XY.x.*.>XOXz 0 0 A.[.^ b 2 ; o ..p./ n < < N       ",
"    I , 2 2 B _ 9.* - 2 3 W a.I.y 0 0 ] &.3.].qX@XN.N.@XwX8X2X&XU.N.N.N.N.N.=X7XD.F.0XiXOX2.l I.]._ b 2 ; o ..y./ b 2 < N       ",
"    I > 2 2 G q.0.* - 2 2 ~ w.I.u 9 9 y @.F.|.}.$XK.L.7X7X&X%XT.K.U.K.K.J.Y.1XwXwX0X[.b.7.,.| I.[.( b 2 ; @ =.i./ b 2 < 3       ",
"    P , 2 2 G } 0.* - 2 2 ~ w.P.y 0 0 9 -.P.5.6.}.OX7XeXwX6X$X$X@X+X+X+X+X+XY.1XeXF.%.&.$.a 0 A.].^ b < ; @ =.i./ b 2 < N       ",
"    U , 2 2 M q.9.* - 2 2 Q !.P.u 0 9 t t.c.#.&.%.7.H.K.-XiXwX+XL.T.R.R.U.N.H.:X@X5.&.&.p 9 0 A.]./ b < ; @ ..i./ b 2 < N       ",
"    U , 2 2 B q.9.* - 2 2 ~ !.P.u 6 6 | .X5.3.3.%.3.n.K.1XwX0X7X8X8X6X&X%XK.K.1XL.&.*.%.h 0 0 A.].^ b 2 ; @  .i.~ b < < A       ",
"    P , 2 2 B q.9.* - 2 2 ~ !.S.y 6 k oXiXOX[.G.F.G.@X7XwX@XK.T.3X8XtXqX3X+X:X;Xb.&.%.&.+.r w A.].^ b 2 ; @ ..i./ n < < A       ",
"    P , 2 2 B q.9.* - 2 3 ~ w.I.u k oXwXXXb.6.3.3.m.+X7X1XU.#X=X3X3X3X6X8XwXiX$Xx.&.&.+.u 0 w A.`.^ b 2 ; @  .i.! b < 2 S       ",
"    P , 2 < J q.9.* - 2 2 ~ w. X{.0XwXl.] %.%.%.x.m.B.-X1X@XL.Y.%X&X&X%XT.:XrXG.$.%.$.i 6 w 6 A.`.^ b 2 : @  .i.! b 2 < A       ",
"    Y > 2 2 B q.9.* - 4 3 ~ o.=XrXiXk.p ` %.4.%.v.N.N.:X3XE.N.T.&X&X%XR.N.T.0XC.*.&.' q i r e S.`.^ n < ; @  .i.~ b 2 < S       ",
"    P 1 2 2 J q.:.* - 3 4 Q w.>XtX<Xz r h %.%.5.m.N.N.:X$XN.U.%X&X&X%XR.N.T.7XC.*.&.` r z -.g.*X`.( b 2 : @  .i.! b 2 , S       ",
"    P > 2 < J q.:.* - 2 3 W w.=XrXk.a e ` %.%.5.B.N.U.7X&X%X&X4X&X&X4X%XU.$XwX].b.G.[.oX,XeXiX3X`.^ c < ; @  .i.~ b 2 , S       ",
"    P 1 2 < J q.:.* - 2 2 ~ q.>XeX8.i r h %.*.x.H.+X7X3X&X&X%X4X&X4X%X4X2XqXiXwX<XXXG.<.=.8.k.$Xa.( b 2 ; +  .u.~ b 2 2 S       ",
"    D < 2 2 J !.9.$ O c c ! !.XXeXh.t u +.6.V. X:X$X*X&X&X&X&X&X&X&X&X&X8XiX7X+Xb.&.*.a 0 u t A.`.( b 2 ; @  .u.! b 2 , S       ",
"    D , 2 2 B !.:.$ O < 2 ! q. XrXyX'.uX XXX<XwXY.N.T.&X&X&X&X&X&X&X&X2XwX1XK.N.v.&.%.] r 0 w Z.`.^ b 2 ; @  .i.~ b 2 < D       ",
"    H 2 < < B w.:.$ O < 3 ~ q.XXrXiX<Xl.7.z.Y.7X+XB.U.%X&X&X&X%X&X&X&X6X7XK.M.N.n.&.%.+.f e 0 A./.( b c ; @ ..u.! v 2 , F       ",
"    D , < c L q.:.$ O c 2 ~ q. XeX.X[ +.%.&.n.=X7XT.J.U.T.T.U.K.E.K.U.7X:XN.N.N.n.&.%.+.h r w Z./.( b , ; o  .u.! v 2 , S       ",
"    D , < c J q.:.% - 2 c ~ q. X<Xl h $.&.%.*.6.>XwX<X=X=X:X1X1X=X@X$XwX6XH.N.N.v.&.%.` y 0 0 Z._.( b c ; o  .u.~ c 2 < D       ",
"    H , < , J w.>.% - 2 2 ~ q. XOXd ` *.%.&.%.*.c.<XpXiXiXqX=X#XY.+X=X7XqX:XK.B.z.+.i y i r w j./.( b 2 ; +  .u.! b < , D       ",
"    S 2 2 2 L w.>.% - 2 3 ~ !.|.oXu ' %.%.3.*.#.3.OXiXiXqXC.x.5.x.z.m.N.Y.7X5X+Xf.p q +.` f t Z./.^ b 2 ; @ ..u.! v 2 > H       ",
"    F , < 2 J q.>.$ O 2 2 ~ } {.XXt a #.#.{ ` a -.,XeXeX0Xc.{ { #.$.%.x.6.6..XiX0Xk.@.$.` f i C.(.^ n < ; + | r.Q v 2 , H       ",
"    S , < c L w.:.$ - 2 3 ~ } |.5X<.0 r r r a j '.eX2.k OXoXz q r r y f f r z ,XpXiXOX,.f f s Z.(.( b 2 ; + X.r.! c 2 > D       ",
"    G , 2 < L w.>.$ - 2 2 ~ _ |.rX5X2.i 0 y 6.|.rX{.] r l.iXOX..f p r 6 y ' 4.XX}.F.5Xf.f f u j.(.^ b 2 ; + T u.! v 2 < H       ",
"    S 2 2 2 L q.>.$ - 2 c ~ _ {.wXiXeX.X2.g.,X0Xk.j u e k oXwXeXh.k r 6 q ' 7.XX,.1.wX'.h y w j.~.) b 2 ; @ T r.Q c 2 , P       ",
"    S < < c L w.>.$ - 2 2 ~ } {.wXiXiXpX0Xk.<.g 0 6 6 5 5 s {.    '.| d a R {.l.y | yX,Xl 0 t j.~.) b 2 ; o T r.Q c 2 > H       ",
"    S 2 2 2 L w.>.* O 2 c ~ !.            ..s k R -.g u k                   OXl 0 g '.    |     )./ b 2 ; + X.r.E c 2 > P       ",
"    A > < c L w.g.3 3 F F                                                                           H F 3 4 O.~.E 3 2 < P       ",
"    D c b N Y                                                                                                   ~ N b 2 U       ",
"                                                                                                                                "
};
