/* XPM */
static char *_6f27d0887d441b0cd4098072965ccc60mos1i8jT7oeVEJO[] = {
/* columns rows colors chars-per-pixel */
"64 64 231 2 ",
"   c None",
".  c #000000",
"X  c #02060B",
"o  c #0A090A",
"O  c #160407",
"+  c #040D16",
"@  c #04101C",
"#  c #191717",
"$  c #140E15",
"%  c #290207",
"&  c #30120D",
"*  c #2E211C",
"=  c #041423",
"-  c #06192B",
";  c #051C34",
":  c #111B25",
">  c #231F21",
",  c #0A223A",
"<  c #04213D",
"1  c #1D2735",
"2  c #362B25",
"3  c #393738",
"4  c #292C33",
"5  c #53220F",
"6  c #423735",
"7  c #40342D",
"8  c #6A3A29",
"9  c #54443B",
"0  c #05294D",
"q  c #082847",
"w  c #062D53",
"e  c #0D3358",
"r  c #123458",
"t  c #192D45",
"y  c #2A3B4D",
"u  c #0B3A69",
"i  c #123E69",
"p  c #103C67",
"a  c #073E75",
"s  c #093F75",
"d  c #17416B",
"f  c #094077",
"g  c #0A447C",
"h  c #144677",
"j  c #2F4F6F",
"k  c #31475D",
"l  c #464647",
"z  c #584D46",
"x  c gray33",
"c  c #5B5B5B",
"v  c #4E4E54",
"b  c #6E524A",
"n  c #46596C",
"m  c #646464",
"M  c #6A6A6B",
"N  c #737373",
"B  c #7C7C7C",
"V  c #75777A",
"C  c #6B6C71",
"Z  c #65656D",
"A  c #AD5F46",
"S  c #815F60",
"D  c #9C746D",
"F  c #AE7D76",
"G  c #C97B65",
"H  c #A3857E",
"J  c #DC8E7A",
"K  c #0C4780",
"L  c #0D4983",
"P  c #0E4C89",
"I  c #124C86",
"U  c #17528C",
"Y  c #145595",
"T  c #135699",
"R  c #1B5B9C",
"E  c #17599A",
"W  c #0F5090",
"Q  c #225D97",
"!  c #245483",
"~  c #2E659B",
"^  c #26629D",
"/  c #37689B",
"(  c #3D658D",
")  c #195EA1",
"_  c #165DA3",
"`  c #1C61A5",
"'  c #1D65AC",
"]  c #1761AA",
"[  c #1E69B2",
"{  c #1D6AB7",
"}  c #2968A8",
"|  c #356CA3",
" . c #336EA8",
".. c #3772AC",
"X. c #216BB4",
"o. c #216EBA",
"O. c #286FB5",
"+. c #2270BE",
"@. c #2B73BA",
"#. c #2B71B6",
"$. c #3878B7",
"%. c #57769A",
"&. c #697886",
"*. c #787F85",
"=. c #4479AD",
"-. c #437BB3",
";. c #457FBB",
":. c #5279A0",
">. c #2274C4",
",. c #2579CC",
"<. c #2C7CCB",
"1. c #2677C7",
"2. c #347BC1",
"3. c #397EC2",
"4. c #317ECB",
"5. c #267DD4",
"6. c #287ED4",
"7. c #807D93",
"8. c #76828F",
"9. c #4A82BA",
"0. c #5587B8",
"q. c #7697B8",
"w. c #6F8CB4",
"e. c #3D82C6",
"r. c #3180CF",
"t. c #2A83DC",
"y. c #2981D7",
"u. c #3385D5",
"i. c #3688DA",
"p. c #2A86E2",
"a. c #2B88E6",
"s. c #2A89E7",
"d. c #328EEB",
"f. c #348CE2",
"g. c #3B93EC",
"h. c #3891E9",
"j. c #3A95F1",
"k. c #3C98F3",
"l. c #4486C9",
"z. c #4689CB",
"x. c #4B8CCE",
"c. c #4786C5",
"v. c #5E95CC",
"b. c #498DD2",
"n. c #5393D3",
"m. c #5A98D7",
"M. c #5D9BD9",
"N. c #5897D6",
"B. c #528BC4",
"V. c #629EDB",
"C. c #629BD3",
"Z. c #6392C9",
"A. c #65A1DD",
"S. c #6AA4DE",
"D. c #7BA5CF",
"F. c #4095EA",
"G. c #4299EE",
"H. c #429CF5",
"J. c #439EF9",
"K. c #489FF6",
"L. c #4CA6FE",
"P. c #4FA8FF",
"I. c #47A1FB",
"U. c #6BA6E1",
"Y. c #6CA7E2",
"T. c #72ABE5",
"R. c #76AEE8",
"E. c #7DB4EC",
"W. c #838383",
"Q. c #8D8D8D",
"!. c #929393",
"~. c #9B9B9B",
"^. c #948B8D",
"/. c #AD918C",
"(. c #9B97A5",
"). c #849EB8",
"_. c #AB9DAA",
"`. c #93A7BA",
"'. c #9AA0A7",
"]. c #A3A3A3",
"[. c #ACACAC",
"{. c #ABA6AC",
"}. c #A6ADB4",
"|. c #AEB4BA",
" X c #B3B3B3",
".X c #BCBCBC",
"XX c #B5B8BC",
"oX c #C5A29A",
"OX c #F9AE9D",
"+X c #FEB19F",
"@X c #C0BFBF",
"#X c #D5AFAC",
"$X c #FBB3A3",
"%X c #F9BCAF",
"&X c #F0B7AB",
"*X c #DA9889",
"=X c #DEC0BF",
"-X c #FDC6B9",
";X c #E0C0B9",
":X c #BBBEC0",
">X c #81B6ED",
",X c #8BBCEE",
"<X c #85B9EE",
"1X c #8DBEF0",
"2X c #90BFF0",
"3X c #9BADC0",
"4X c #93C2F1",
"5X c #9CC7F3",
"6X c #98C0E9",
"7X c #A6CDF5",
"8X c #ADD1F7",
"9X c #B8D7F8",
"0X c #ACCCED",
"qX c #C4C4C4",
"wX c #CBCBCB",
"eX c #D5D5D5",
"rX c #D9D9D9",
"tX c #D3D8DD",
"yX c #D7CFCF",
"uX c #FACDC4",
"iX c #FFD4CA",
"pX c #FED3CA",
"aX c #FDDAD2",
"sX c #FFE4DF",
"dX c #CFDFF0",
"fX c #D6E9FE",
"gX c #CDE5FD",
"hX c #ECECEC",
"jX c #E3E3E3",
"kX c #F1F1F1",
"lX c #FEE8E5",
/* pixels */
"                                                      * 2 2       2 2 2                                                         ",
"                                                      2 z z 2 r 4 9 z 3                                                         ",
"                                                O.X.O.! # # 7 4 6 * # k U f f f                                                 ",
"                                            X.l.A.A.A.V.%.+ O * # o j Z.M.v.9.E a s                                             ",
"                                          C.6X0X5XE.E.R.3.h w e 0 0 U v.>XE.T.c.R T f                                           ",
"                                        C.9XfX9X1XE.T.z.N.M.B.B.} R E ^ v.E.>XT.x.' T f                                         ",
"                                      z.6XgX9X,XE.Y.x.N.E.E.>XE.M.@.[ P -.>XE.E.T.x.X.T g                                       ",
"                                    X.M.8X8X5X4XE.V.2.E.E.E.E.E.E.e.c.} } v.E.E.E.S.X.' g                                       ",
"                                    l.U.4X5X9X9X>Xn.N.,XE.E.E.E.E.2.N.V.Q ..>XE.E.T.l.X.Y                                       ",
"                                  O.V.E.E.7XgXgXS.3.,X9X7X2XE.E.E.n.S.>X-.} C.>XE.E.Y.O.' L                                     ",
"                                  X.V.E.E.4X8X,Xn.x.,XgXfX8X<X1X4XE.,X<XM.Q | E.E.E.Y.O.' g                                     ",
"                                  X.V.>XE.E.E.N.c.>X,X8X7X>XE.9X9X4X5X4X>X-.| >XE.E.Y.O.' P                                     ",
"                                s ' V.E.E.E.>Xn.e.E.E.>X>XE.>X7X9X,XE.E.E.9.~ S.E.E.T.2.X.' K                                   ",
"                                s ) U.E.E.>XR.n.z.>XE.E.E.E.E.>X>XE.E.E.E.n.T | E.E.E.Y.@.' L                                   ",
"                                s ' V.>XE.E.n.z.T.E.E.E.E.E.E.R.E.E.E.E.E.n.T ~ E.E.E.T.@.[ K                                   ",
"                                g ) V.E.E.>Xx.c.>XE.E.E.E.E.E.E.E.E.E.E.E.n.T ~ E.E.E.T.@.' g                                   ",
"                                f ` A.E.E.E.n.l.E.E.E.E.E.E.E.E.E.E.E.E.>Xn.T ~ E.E.E.T.@.' K                                   ",
"                        s f f a s K v.E.E.E.x.l.E.E.E.E.E.E.E.E.E.E.E.E.E.n.Y ~ E.E.E.T.O.L g s s s s                           ",
"                      L ) R R ) ) g } U.E.>X9...E.E.E.E.E.E.E.E.E.E.E.E.>Xn.T ~ E.E.E.T.X.g T ) ) ) ) Y                         ",
"                      w e X.{ X.[ L ` M.>X>X-. .E.E.E.E.E.E.E.E.E.E.E.E.E.n.f j E.E.T.l.X.K ` { { { d q                         ",
"                        = ' X.' Y g ) 3.S.>X-. .E.E.E.E.E.E.E.E.E.E.E.N.V.n.p y E.E.S.O.' K P ' X.X.q                           ",
"                        @ e U W f s ) { 2.U.=.Q M.E.T.n.R.E.E.E.E.E.E.l.n.N.p y E.T.l.O.' g a P Y p -                           ",
"                          X < a a f ] X.[ 3.c.~ ..E.U.2.R.>XE.E.N.T.E.l.3.e.i y T.l.X.X.' K a a 0 @                             ",
"                            X < q q r R X.[ e...| >XA.@.m.R.E.E.$.V.>Xz.[ X.i t z.X.[ ' p q q q @                               ",
"                              . . @ X h o.X.X.Y Q S.S.X.@.T.E.R.3.z.T.z.X.X.i , [ X.[ R + . . .                                 ",
"                                . q $ r ) X.X.) L ~ n.X.} V.E.R.2.X.x.3.X.X.i , X.X.' h +                                       ",
"                                . % & % e R ] o.i ; ) ) K X.V.R.2.X.X.' X.X.i , X.R h +                                         ",
"                                  . % O o ; P ] h - s ) u X.O.m.2.[ X.W Y o.i , Y w X                                           ",
"                                  . . % O . ; u s 0 ; I = R o.O.X.X.X.I I [ p = 0 X                                             ",
"                                    . % O O $ = < q @ w = u ) X.[ X.[ q ; Y p X =                                               ",
"                                      o o e E ,.U $ o @ 0 = Q X.X.X.Y - o t 0 w { g                                             ",
"                                    O.g s X.6.s.Z.*XD O + + s ' X.[ P - b b r <.p.>.g L X.                                      ",
"                    X.X.X.X.X.X.X.X.5.5.u.G.j.5.w.$XOXoXoXF 1 T [ X.q M OX*X7.,.d.I.i.,.y.{ [ X.[ [ X.X.X.                      ",
"                  r.g.g.h.y.y.y.t.f.H.J.L.k.t.I v OX%XsXsX&X> a ` Y : ^.uX+XD p ,.j.L.I.I.g.t.y.y.y.f.g.F.u.                    ",
"                r.G.P.P.P.k.k.k.H.L.P.P.k.t.>.p * G %XsXsXuX/.1 s q M yXuXJ 8 ; o.,.j.L.L.L.I.k.k.I.L.P.P.K.u.                  ",
"                u.P.I.j.j.k.P.P.P.L.k.i.<.o.{ p & A &XuXaXpX&X/.4 m #XaX%XG 5 q [ [ 1.u.g.L.L.L.P.k.j.g.H.P.F.X.                ",
"              r.g.P.I.t.s.k.j.i.u.h.y.{ [ [ { p & A OX$XuXpX-X&X7 /.aX%X+XG 5 ; O.[ X.[ ,.h.i.i.h.k.a.s.g.P.K.u.                ",
"            X.i.P.L.j.d.k.I.p.o.>.p.5.o.>.+. .n 6 S OX$XpXaXpX$XD #XaX%X+XF l v / o.>.O.,.p.,.{ y.k.I.d.d.I.P.F.X.              ",
"            r.g.I.d.,.t.P.I.y.y.p.s.y.,.t.2.%.V ! ( _.-XuX(.(.^.(.(.=XpX#X%.! Z V $.t.,.5.p.s.,.5.g.P.h.5.p.I.H.r.              ",
"          @.h.P.j.,.' 1.G.i.{ t.s.y.o.5.t.( z k U >.B._.(.R T ` _ T *._.Z.6._ i v n 5.t.+.5.p.s.>.u.H.u.' +.a.P.K.r.            ",
"        [ i.P.I.i.0.-.o.y.' { y.5.o.X.,.$.t . , T s.r.Q T f.d.J.j.d.{ Y @.f.{ w . :  .5.X.X.y.t.+.' 1.+.$.0.c.G.P.H.+.          ",
"         .i.G.x.q.qX`. .O.$.-.} X.{ { R j 3     E { E k.d.I.J.d.H.J.d.G.X._ { a   # n U [ [ [ } $.9.#.` w.qX`.c.F.F...          ",
"        V :.e.q.XX X].8.0.XX[.8.=.$. .t o       W ) T t.H.s.s.t.d.6.H.d._ Y T a     o # ~ $.$.&.~..Xq.0.~.[.XX`.9.-.&.          ",
"        Q.[.tXeX~.B ~.:XXX X8.H  XXX*.l           h $.2.t.$.y.2.6.2.6.<.$.Q i         l M }.XXQ.B [.:XXX'.H !.qXrXXX^.          ",
"      8.qXhXkXXXB !.wXjX=X[.W. X=X[.3             C |.`.;.`.9.`.B.).0.D.|.*.v           > ~..X.XW.]..XrXrX].B ~.hXhXrX!.        ",
"    B qXhXkXeX~.!.wXkXjX}.V c [.}.l             8.wXqX:X`.!.}..X3X!.(.:X].[.].l           > ~..XC M ].eXkXeX].Q.wXhXhXrXQ.      ",
"    H wXkXrXW.W.wXhXjX[.x l   c x             W.qX=XqXwX^.[..X.XqX}.!.:XqX.XwX].l           x c   l x Q.rXkXeX~.N qXhXhXQ.      ",
"  W.qXhXeXW.m !.eXjX[.m                       m M m m m x M  X.X@XD v m M c m M                       x Q.rXjX{.M N qXhXeX!.    ",
"  W.eX~.M x C ~.].N m                                       M M M                                       c M !.[.V   M B rX!.    ",
"  B B c     B N m                                                                                           x N B       B B     ",
"                                                                                                                                ",
"                                                                                                                                ",
"                                                                                                                                ",
"                                                                                                                                ",
"                                                                                                                                ",
"                                                                                                                                ",
"                                                                                                                                ",
"                                                          . . . .                                                               ",
"                                          . . . . . . . . . . . . . . . . . . . .                                               ",
"                                    . . . . . . . . . . . . . . . . . . . . . . . . . .                                         ",
"                                    . . . . . . . . . . . . . . . . . . . . . . . . . .                                         ",
"                                          . . . . . . . . . . . . . . . . . . . .                                               ",
"                                                    . . . . . . . . . .                                                         ",
"                                                                                                                                "
};
