/* XPM */
static char *_376e399206c4a6ed4db8384efa133f5ZD4x6YX99lmoQIMD[] = {
/* columns rows colors chars-per-pixel */
"64 64 226 2 ",
"   c None",
".  c #000000",
"X  c #070809",
"o  c #02101D",
"O  c #181515",
"+  c #040D16",
"@  c #351C15",
"#  c #291B18",
"$  c #31231D",
"%  c #041627",
"&  c #051C32",
"*  c #1E1C20",
"=  c #07213B",
"-  c #192838",
";  c #1B202E",
":  c #352822",
">  c #322E32",
",  c #2D1E20",
"<  c #451C0D",
"1  c #632A17",
"2  c #47312D",
"3  c #423735",
"4  c #57352D",
"5  c #793C2B",
"6  c #613F38",
"7  c #572513",
"8  c #4E423B",
"9  c #764233",
"0  c #06284B",
"q  c #082E52",
"w  c #08325A",
"e  c #193656",
"r  c #29374B",
"t  c #093866",
"y  c #173E65",
"u  c #063D73",
"i  c #093F74",
"p  c #453E48",
"a  c #37475C",
"s  c #0A4176",
"d  c #0A437C",
"f  c #124679",
"g  c #1B4B7C",
"h  c #144576",
"j  c #244B73",
"k  c #474747",
"l  c #5C4B43",
"z  c #535455",
"x  c #4D4554",
"c  c #634946",
"v  c #785247",
"b  c #475E79",
"n  c #4E536B",
"m  c #646464",
"M  c #6A6A6A",
"N  c #6D687A",
"B  c #7A7B7B",
"V  c #747576",
"C  c #6F6C71",
"Z  c #55616D",
"A  c #994A30",
"S  c #8C5C52",
"D  c #976658",
"F  c #B16E5B",
"G  c #8B6C6F",
"H  c #A97A6D",
"J  c #AE5D43",
"K  c #C67C67",
"L  c #CB826E",
"P  c #C98673",
"I  c #D58B77",
"U  c #DA927E",
"Y  c #E5927E",
"T  c #0B4781",
"R  c #0D4A85",
"E  c #0E4D8A",
"W  c #134C83",
"Q  c #124E8A",
"!  c #1B4E82",
"~  c #14518D",
"^  c #1A548D",
"/  c #1C5084",
"(  c #135493",
")  c #16599C",
"_  c #1A5C9C",
"`  c #175797",
"'  c #0F5090",
"]  c #29598B",
"[  c #365C86",
"{  c #215B95",
"}  c #2B6295",
"|  c #185DA2",
" . c #155CA2",
".. c #1B61A5",
"X. c #1D65AC",
"o. c #1962AA",
"O. c #1E69B3",
"+. c #1E6DBB",
"@. c #1C67B2",
"#. c #2364A5",
"$. c #2268AD",
"%. c #2266AA",
"&. c #356EA7",
"*. c #3772AC",
"=. c #216BB3",
"-. c #226EBB",
";. c #2C73BA",
":. c #2871BA",
">. c #3578BB",
",. c #4E6C91",
"<. c #657782",
"1. c #707592",
"2. c #5577A5",
"3. c #427CB7",
"4. c #4B7DAC",
"5. c #1B6EC0",
"6. c #1F70C1",
"7. c #2273C3",
"8. c #2479CE",
"9. c #2578CC",
"0. c #377DC3",
"q. c #257DD4",
"w. c #2D7ED1",
"e. c #8F7783",
"r. c #4A82BB",
"t. c #5286BE",
"y. c #718CB2",
"u. c #73879A",
"i. c #3D81C5",
"p. c #2982DB",
"a. c #2781DA",
"s. c #388ADC",
"d. c #2985E2",
"f. c #2C8AEA",
"g. c #2988E7",
"h. c #3892EC",
"j. c #3998F6",
"k. c #4B8CCD",
"l. c #4385C6",
"z. c #548DC8",
"x. c #5A93CD",
"c. c #5494D3",
"v. c #5996D4",
"b. c #5B98D6",
"n. c #5D9BD9",
"m. c #619DDA",
"M. c #659DD5",
"N. c #65A1DE",
"B. c #69A3DD",
"V. c #70A7DF",
"C. c #479CF3",
"Z. c #49A1F9",
"A. c #55A7FB",
"S. c #6CA6E1",
"D. c #6EA8E3",
"F. c #69A9EF",
"G. c #73ACE5",
"H. c #76ACE6",
"J. c #7DB4EC",
"K. c #6AACF3",
"L. c #8C8C8B",
"P. c #838383",
"I. c #938F94",
"U. c #AE8E8F",
"Y. c #8896A4",
"T. c #939DAB",
"R. c #9DA6AF",
"E. c #B6B7B8",
"W. c #A8ACAF",
"Q. c #D59888",
"!. c #C89D93",
"~. c #E49885",
"^. c #E7A594",
"/. c #F2A998",
"(. c #D1B2A6",
"). c #F6B4A6",
"_. c #FAB7A9",
"`. c #F8BEB2",
"'. c #F1B2A4",
"]. c #DAA69A",
"[. c #FCC3B6",
"{. c #F9C7BC",
"}. c #C3C3BD",
"|. c #8DABD5",
" X c #A9B8CD",
".X c #80B6EE",
"XX c #87BAEF",
"oX c #94BDE6",
"OX c #ACBFE3",
"+X c #8C9DC6",
"@X c #D1BDC4",
"#X c #E3BFC1",
"$X c #96C2EE",
"%X c #9AC6F3",
"&X c #94C3F2",
"*X c #8DC1F7",
"=X c #A4CCF6",
"-X c #A7CEF6",
";X c #ACD1F7",
":X c #ABD1F8",
">X c #B8D8F9",
",X c #C9C4CD",
"<X c #C8C9C9",
"1X c #D7C2C6",
"2X c #D6CED4",
"3X c #D3D3D3",
"4X c #DAD9D9",
"5X c #CBCBD7",
"6X c #E8C7C5",
"7X c #FBCDC3",
"8X c #F3CFCC",
"9X c #FDD1C7",
"0X c #FDD3CA",
"qX c #F2D1CE",
"wX c #FDDBD4",
"eX c #F8D9D6",
"rX c #E7D9D3",
"tX c #FEE3DE",
"yX c #C3DAF5",
"uX c #C8E2FC",
"iX c #D8EBFE",
"pX c #FDE7E3",
"aX c #FEE9E6",
"sX c #FFECE8",
"dX c #F6E6E6",
"fX c #EEF1F9",
/* pixels */
"                                                      $ : :       : : :                                                         ",
"                                                      > l l > } r 8 l 3                                                         ",
"                                                    >.u.O O 3 > 3 * O e ~                                                       ",
"                                                  i.b.;.~ / } y a w q s ` (                                                     ",
"                                                O.:.0.O.=.O.O.T ( _ ..| ( d s                                                   ",
"                                            @.i.v.b.v.b.b.v.-. .@.k.b.n.z.t.*.~ u                                               ",
"                                          l.m.oX>X=X%X.XJ.J.c.:.k.D..XJ..XJ.D.c.*.(                                             ",
"                                        i.H.uXiXiX>X%XJ.J.J.J.b.G.J..X.XJ.J.J.J.H.l.(                                           ",
"                                      l.H.>XiXiXuX&XJ.J..XJ.J.n.H.N.c.c.c.B.J.J.G.k.=.~                                         ",
"                                    O.n.-XuX>X-X&XJ.J.H.n.v.v.;.k.>.@.0.l.k.b.b.k.=.O.@.d                                       ",
"                                    i.B.%X&XJ.J.J.J.J.G.l.0.-.0.i.i.i.k.G.m.i.>...=.=.X.~                                       ",
"                                  =.n.D.G.J.J.G.m.S.S.m.S.m.l.D.J.J.J.c.v..XXXx.{ ..O.=.O.d                                     ",
"                                  =.v.k.B.J.B.c.0.0.0.;.=.:.m.S.S.S.H.J.J.%X;X.Xx.~ ..=.X.d                                     ",
"                                  O.=.n.$XM.>.c.J.H.J.S.>.=.$.$.O.@.z.D.J.;XiX;XV.%.R X.O.d                                     ",
"                                  =.:.v.k.b.$X;X%XG.V.V.m.=.d h s s d _ N.>XiXuX-Xv.W X.O.d                                     ",
"                                O.=.x.&.t.-XuX=Xm.#.W W / ..d h g g f ! } c.%X>X:XB.%.Q ..d s                                   ",
"                                =.O.^ t.$X>X=Xm.#.g d f f W !  X2X2X2X2Xu.` c.%X-XJ.v.W ..d u                                   ",
"                                =.O.W z.-X=Xn.#.2.<X<X,X,X,X,XdXsXaXsXsX4Xy.*.oX-XJ.G...R i i                                   ",
"                                O.( 3.G.XXXXr.,.<XsXaXaXaXaXaXaXaXaXaXaXsXT._ v.XX.XD.=.d u u                                   ",
"                                $.R x.XXJ.n._ n F F P [.pXaXaXaXaXaXsX0XQ.S r &.J..XS.$.u & %                                   ",
"                              i Q f x.n.B.3.,.W.Q.Q.Q.'.[.wXtXaXaXwX9X_.^.Q.B ^ c.J.D.#.& 0 0 t                                 ",
"                            d ` ( d >.;.b.*.N U P P P L ).9XtXtXeXeX`.I L P C E 0.J.G.#.q W ( ( R                               ",
"                            s ) l.W | =.l.} x 5 < < 1 A U {.0X0X0X0X^.J 1 < , w *.G.k.X.W l.k.#.R                               ",
"                              d l.3._ X.| [ M D k . X 1 F {.0X0X0X0XK 5 c > . % ^ k.=.X.W B.m.^                                 ",
"                              s ` k.{ ) E <.(.}.V . O 8 P {.0X0X0X0X~.v B m . & R =.X.| &.z.%.T                                 ",
"                                i ` t ^ ( <.3XR.% + a (.'.0X0X0X0XwX[.(.N % + q R =.| Q z.%.T                                   ",
"                                  u o h ' <.rX Xh q r.dX[.tXwXwXeXpX7XwX+Xt y R R =.| T _ d                                     ",
"                                    X h d N 6X>XF.F.&XfXtXtXpXsXpXpXeXaX>XK.K.z.] %.X.i t d                                     ",
"                                        X = e.{.qXrXtXsXpXpXpXtXaXsXaXsXdXrXqX{.U.Q | w % ` T                                   ",
"                                        . . v _.9X0XtXtXpXpXtX[.wXaXtXaXtX0X0X[.U.E ( % t | T                                   ",
"                                          . 4 K ).{.9XwXwX0X0X9X0X0X0X0X0X8X[.U S u t o t d                                     ",
"                                            O # 8 I _.{.9X9X0X0X0X0X8X7X[.P 9 # ; w % w   i                                     ",
"                                            R  .! # 4 K K /.).).).).U K S @ - ^ i & W s                                         ",
"                                        =.6.q.q.2.F 5 @ @ 2 2 2 2 2 : @ 1 S 1.7.9._ ~ _                                         ",
"                                  i u -.q.d.f.5.1.'.].U.H 9 5 5 9 5 S H !./.U.o.g.d.6.9.T u                                     ",
"                                d o.-.q.f.f.q. .n ~.`.0X`./.~.~.Y ^._.0X7X/.C E q.g.f.d.+.@.E                                   ",
"                                d 8.f.f.6. . .R r D |.|.OX8X`._.`.0X5X|.|.H c T | 7.@.d.f.d.E                                   ",
"                                u 9.q.+.) ' T u r p q.f.A.OX8X_.7XOXK.j.g.[ > u R o.` @.q.a.E                                   ",
"                                 .q.6.) ( ) ( R 0 0 q.j.C.C.#X_.`.H.j.h.q.t & d ~ ) ` ( O.a.@.R                                 ",
"                              d q.q.9.-.) d ( ' ; , Q 5.+.2.Q./.~.1.-.5. .r * u  .d ~ =.7.q.p.E                                 ",
"                              ) q.@.q.+.X.' E i ; c 3 [ <.F K ).~.F 1.[ x p 2 q ( R $.X.a.@.a.o.                                ",
"                            d a.d.( +.` ( ] y t E 2.].`.7X7X9X9X8X7X7X_.'.1.| t t i ) R 9.E 8.d.`                               ",
"                            R a.q.E ) E s b k & E =.t.1X#X0X0X7X9X9X6X#XM.&.) q ; g i d ..d 6.s.(                               ",
"                            T 7.` i i f d b m r E 7.p.;.i.@X9X`.7X7Xx.7.w.8.) q p Y.i ! s s / 7.(                               ",
"                              ] T.[ h u.,.b 8 = Q 7.d.p.p.3.@X6X6Xy.w.q.f.q.) 0 > T.b Y.j g Y.}                                 ",
"                            m E.3XW.R.I.Y.z X   E 7.g.f.a.~ &.] &.~ 7.f.f.8. .r S W.T.L.R.W.<X<XB                               ",
"                            m <X4X3X3XP.I.z       ) f.C.C.X.g - i _ s.Z.h.+.d     E.R.C <X3X4X4XB                               ",
"                            m <X<X3X4XB m z         ) 0.Z.h.#.- ! s.Z.s.| E       C m m <X4X<X3XB                               ",
"                            m <XE.3X4XP.k             ~ _ _ Q t f ) _ W d             M 5X4X(.3X1.                              ",
"                            m W.L.<X<XB                 a a       a a j               m E.3XI.W.B                               ",
"                              B m P.P.M                 L.I.      I.I.                  B L.M V M                               ",
"                                                                                                                                ",
"                                                                                                                                ",
"                                                                                                                                ",
"                                                                                                                                ",
"                                                                                                                                ",
"                                                                                                                                ",
"                                                          . . . .                                                               ",
"                                          . . . . . . . . . . . . . . . . . . . .                                               ",
"                                    . . . . . . . . . . . . . . . . . . . . . . . . . .                                         ",
"                                    . . . . . . . . . . . . . . . . . . . . . . . . . .                                         ",
"                                          . . . . . . . . . . . . . . . . . . . .                                               ",
"                                                    . . . . . . . . . .                                                         ",
"                                                                                                                                "
};
