/* XPM */
static char *_d1d688849d84993a06fc30a0fdaeae3ynMkdqIOJz3ku84G[] = {
/* columns rows colors chars-per-pixel */
"64 64 167 2 ",
"   c #131617",
".  c #151718",
"X  c #17191A",
"o  c #191B1D",
"O  c #1C1F21",
"+  c #1E2123",
"@  c #1E393F",
"#  c #202426",
"$  c #232629",
"%  c #262A2D",
"&  c #282C2F",
"*  c #252D31",
"=  c #2A2E31",
"-  c #2D3235",
";  c #24353A",
":  c #2E3539",
">  c #263A3F",
",  c #2E3A3F",
"<  c #303537",
"1  c #31363A",
"2  c #343A3D",
"3  c #2E3D43",
"4  c #363D41",
"5  c #383F42",
"6  c #2A434A",
"7  c #344146",
"8  c #3B4246",
"9  c #36464B",
"0  c #3E4549",
"q  c #3D494D",
"w  c #234A51",
"e  c #2D4D54",
"r  c #344D57",
"t  c #3E4D53",
"y  c #2F5057",
"u  c #3C5056",
"i  c #35535B",
"p  c #355B64",
"a  c #335F68",
"s  c #33626B",
"d  c #3F636B",
"f  c #2B6772",
"g  c #2C6873",
"h  c #286E7A",
"j  c #356B76",
"k  c #376E78",
"l  c #3D6F78",
"z  c #40474B",
"x  c #42494D",
"c  c #464D52",
"v  c #484F53",
"b  c #465155",
"n  c #4A5156",
"m  c #45555A",
"M  c #4D555A",
"N  c #44595E",
"B  c #4C595E",
"V  c #50575C",
"C  c #51595E",
"Z  c #435C63",
"A  c #4C5C62",
"S  c #555D62",
"D  c #585F64",
"F  c #45636B",
"G  c #4B656D",
"H  c #566065",
"J  c #596166",
"K  c #53646B",
"L  c #5D656B",
"P  c #56696F",
"I  c #5F686E",
"U  c #446674",
"Y  c #466972",
"T  c #4C6872",
"R  c #4C6E7A",
"E  c #526C74",
"W  c #5D6C74",
"Q  c #546E78",
"!  c #4C737C",
"~  c #54727B",
"^  c #5B767D",
"/  c #55787F",
"(  c #60676E",
")  c #60696F",
"_  c #646C73",
"`  c #677077",
"'  c #677178",
"]  c #6A727A",
"[  c #63787D",
"{  c #3B7A86",
"}  c #317E8C",
"|  c #4A7583",
" . c #4D7B86",
".. c #557484",
"X. c #5E7484",
"o. c #5D7B84",
"O. c #5D7C8A",
"+. c #56858F",
"@. c #59818C",
"#. c #5B8692",
"$. c #57879A",
"%. c #5C8E9A",
"&. c #43909E",
"*. c #64828B",
"=. c #69878D",
"-. c #638690",
";. c #698C94",
":. c #67919B",
">. c #78949D",
",. c #4295A3",
"<. c #6C96A4",
"1. c #6698A6",
"2. c #6D9BA4",
"3. c #649DAE",
"4. c #7599A6",
"5. c #7D99A3",
"6. c #749EAA",
"7. c #5EA5B4",
"8. c #6DA2AE",
"9. c #67A1B0",
"0. c #6DADB9",
"q. c #79ADBA",
"w. c #6EB5C6",
"e. c #68BACC",
"r. c #71BBCE",
"t. c #88949A",
"y. c #88A4AC",
"u. c #9DA9AD",
"i. c #9CBEC9",
"p. c #A9BCC3",
"a. c #85C0D3",
"s. c #89CFDC",
"d. c #92C3D4",
"f. c #95C7D8",
"g. c #9CC8D9",
"h. c #A7C3CD",
"j. c #A2C3D0",
"k. c #ACC6D1",
"l. c #A1C8D5",
"z. c #A2CFDC",
"x. c #B3C9D1",
"c. c #BFD1D7",
"v. c #B7D5DE",
"b. c #BCD2DB",
"n. c #95CCE4",
"m. c #A6D3E3",
"M. c #A9D3E3",
"N. c #A3D6E9",
"B. c #A3DBEC",
"V. c #ACDBEA",
"C. c #B6DBE6",
"Z. c #B5DEEB",
"A. c #BCDEEA",
"S. c #B5E1EE",
"D. c #AEE7F5",
"F. c #BCE5F3",
"G. c #C9DCE3",
"H. c #C2E3EE",
"J. c #CAE4EC",
"K. c #D0E2E6",
"L. c #C6E7F1",
"P. c #C9E7F2",
"I. c #C7E8F2",
"U. c #CBEAF5",
"Y. c #CEEFF8",
"T. c #D2F1FA",
"R. c #E4F5F9",
/* pixels */
"x.K.t.u.G.U.I.L.C.h.d.f.m.B.B.F.A.P.Y.U.L.A.k.i.C.V.N.N.M.h.M.N.d.Z.F.M.h.l.V.f.M.n.g.J.T.S.S.J.p.j.H.v.z.S.S.Z.H.R.R.b.c.b.L.S.",
"T 2.M S E e.1.~ G 3 p | U e.w.O.../ 1.7.R X.P c R 3.$.9...A $.#.u r.D.r.T ..5.K -.a.o.*.<.*.4.>.C m @.G G =.8.%.Q w.y.W P T 6.Q ",
"K k 8 c x ,. .L n 2 t A M 7.;._ ) J N } A ` _ c 1 e p { K I  .u c 3.s.! ` W ' C P q.H ) J z o.~ M x F ) M & 9 b M o.^ ' _ S P v ",
"B s 4 8 7 &.Y M 5 8 S _ K %.^ _ ( J F h v I S z 5 , ; j d n U t M @.q.S I J W J J 0.A J S 4 [ ..8 8 F V 8 5 J _ ( A K _ I A A 5 ",
"9 e 8 8 1 :.9 8 - 2 J ] _ :.E L L L Z g 8 n 0 8 z 1 $ d i 4 ; 4 S / 8.L L K J J n %.N n z 2 K F - 0 s 7 - 1 J ] ] A A L L S 9 $ ",
"8 1 2 $ % +.t 8 % % M ) _ @.J V C J u w - 8 0 0 4 $ + p y 5 O % n ~ 2._ L u b L 2 N b 7 0 8 7 > $ q y 9 & $ n ) ] Z M V M n :   ",
"- % # o & =.b - o + 2 n m  .m 8 2 5 - ; $ % < = # X % p 6 = X # < G +.B M 2 2 4 = 3 > % - = + + - 8 : * o # 1 n A 9 z 0 4 1 = 4 ",
": + # 0 - ~ 9 $ % c - & * s : & % 1 7 8 0 1 - + + z = 3 * * % c - Z i % * & % < 8 , 2 1 - + o 2 - & % % $ n - % % % = = % , 5 8 ",
"5 # z L c ! c v 0 C J C < r 2 2 8 8 8 8 8 8 0 # z L n - 2 c 0 C H F @ # 2 4 8 8 8 2 4 0 0 # 8 J v 4 5 c 5 S D V 1 % 4 4 5 5 0 5 ",
"2 1 D W S l 9 n z z C x - 6 0 0 z 0 8 8 8 8 8 < J ) J z 8 M z z C 8 $ 8 8 8 z 0 8 8 8 8 8 < J ) L c 5 M x 0 S x = 5 0 5 0 0 8 0 ",
"C 5 S ` K f u I C 1 = # % 9 S J ( M 0 z x M C 5 C ` ) M n J C 2 = X - C D L _ n 8 0 x n C 5 S _ _ n c J S 1 = O = S S L ( M 0 0 ",
"( z 2 D n a K _ S & 2 x 1 B ] ] ] J C J J L L x 1 J H J ) ` C & 2 5 2 ) ] ] ] L S J L J ) x 1 D S D _ _ S = 4 c 5 ( ] ] ] D S A ",
"_ S & 8 8 7 A v 1 - I C 1 S ] ] ] ) ) ` ` ` ` J = 8 z H J n 1 - ( C 2 D ` ] ] ) W _ ] _ _ J & 8 0 D L b 4 - L S 1 D ` ] ] ( ( D ",
"` L 2 2 8 = 5 1 # z ` S 1 v I ' _ ` ] ] ] ] ` L 2 2 0 z 8 < # z _ D 1 n I ` _ _ ] ] ] ] ] L 2 2 8 x 0 : O 0 ' D 1 c L ` ` _ ] ` ",
"_ L < # 5 1 = z 1 c _ _ 1 5 C I L L ) _ ` ] ) L 1 # 8 2 < z 2 z _ _ 1 2 C L I ) _ _ ` ] _ I 2 + 5 4 = 0 4 z _ _ 1 4 S L L I _ _ ",
"D J = o % 1 M J 2 0 J _ x = 0 n M n b n M C J J = o $ < M J 2 0 J _ x - 0 n n n c c M S S J - X % 1 M J 5 5 S ` c = 0 n M n c c ",
"0 n 2 o c _ ` ( 0 2 n I J : 1 8 8 8 8 8 8 8 0 b 1 o x ` ` ( 0 2 n I J 1 2 8 8 8 8 8 8 8 0 v 1 o x ` ` L 0 4 v I J 1 , 5 5 5 5 0 ",
"8 8 2 & L ` ) L 8 - x M n 8 $ 4 8 8 8 8 8 8 8 0 5 = J ] ) J 0 - z M M 8 # 5 8 8 8 8 8 8 8 0 4 = D ] _ L 0 = 0 M n 0 $ 4 0 0 0 5 ",
"8 8 1 v L L L V 2 % 8 8 8 8 - $ 4 0 8 8 8 8 8 8 1 c L L ( C 2 % 8 8 8 8 - $ 2 0 8 8 8 8 8 0 1 c I I L V 4 % 5 5 0 8 : $ 4 0 8 4 ",
"5 8 1 x C V n z 8 * % 4 0 8 2   o - 8 8 8 5 8 8 1 x C M n z 8 & & 2 0 8 1   o - 5 8 8 8 8 5 1 z S M n z 5 = = 4 8 8 1 X X = 5 = ",
"# #   2 0 8 8 8 0 2 + + & = 2 z $   + & % $ $ # . 1 0 8 8 8 0 2 + + % - 2 z $   + * % $ $ $   1 5 0 5 0 0 4 O O $ = 2 z %   + O ",
"2 5 $ & 8 8 8 8 4 # 1 2 2 z S I S - 8 8 4 4 4 4 & = 8 8 8 8 5 $ 1 2 1 0 S ( S < 5 0 4 4 4 4 % = 5 5 0 5 4 $ 1 4 2 z S L S - 5 5 ",
"2 z n z - 5 0 4 $ - c C S L _ _ ) n 8 C c x 0 z n z < 5 8 5 # = x C H L _ _ ( v 8 C v x 0 z v z 1 4 5 4 $ = c S J L _ _ ) n 8 v ",
"0 J L L C & - 2 z - x J L _ ] ] _ L 4 S _ I J J L J C = = 2 z - x J L _ ] ] _ L 5 C _ I J D L I S = = 4 0 : z S L _ ] ] ` L 5 V ",
"C S M J L 2 z ) J 1 z J I ] ] ] _ L n D ] ] _ S M J L 5 z ) J 1 x J I ] ] ] _ L n S ] ] _ S n J L 5 0 I J 1 x J L ] ] ] _ L n C ",
"( x 8 x C 0 L ` n 2 C L L _ _ ] _ L n C ) ` ) c 8 z C z J ] n 2 C L J _ ` ] _ L n C _ _ ) c 8 z C z J ' n 2 B L L _ _ ] _ I n V ",
"M 0 8 8 8 8 C M 2 8 L ` _ J L _ ( L x 5 M J C 0 8 8 8 8 C M 2 5 J ` _ L L ) I L c 5 M J C 8 8 8 8 8 C M 2 5 J ` ) I L ) ( L v 1 ",
"0 8 0 5 - x z 8 = 2 J ` ] ` L J J ( z $ 0 x 0 8 8 8 = x z 8 = 2 J ] ] _ L J L L z $ 0 x z 8 8 8 = x z 8 - 2 S ] ] _ L L J ( x   ",
"8 8 1 # & x z 0 $ $ v I _ _ L n M J 2 o = 8 8 7 2 # & x z 8 $ $ c ( ` _ L M n J 5 o & 8 8 8 2 # & x 0 8 $ $ c L ` _ L n n J 5 X ",
"- # # o & 8 2 $ o $ < z n M x 8 1 < < 4 = % - $ + o & 5 2 & o $ - z n M x 0 1 - < 5 - $ = $ # o & 8 2 & o $ - x n n c 8 1 1 - 5 ",
"1 + $ n < % & - - M 2 & $ $ & % = 2 0 8 8 2 2 + # n 1 & & < = M 2 & $ $ % % = 2 8 8 8 2 2 # # n 1 % & < = M 2 & $ $ & & & 2 8 8 ",
"0 # b L M 8 8 n 0 C J S 1 - 4 8 8 8 8 8 8 8 0 $ c ( M 5 8 c z V J J 2 = 7 4 0 0 0 8 8 8 8 $ x I M 5 8 v z C J S 2 - 2 8 8 8 0 8 ",
"0 1 D _ L x 5 M x 5 M 4 = 0 0 0 x 0 8 0 8 0 0 < J _ I x 0 M z 8 V 2 = 0 0 z x z 0 8 8 8 0 1 J ) ( x 8 M x 8 M 8 & z 0 0 x z 8 2 ",
"S 4 S _ _ M M L D 1 % $ 1 S I _ _ M 0 z x M H 8 C ` ) M M L H 1 & $ 1 C L ) _ C z x b M J 5 C _ ) V n ( H < $ # - S ( _ _ C z 1 ",
"S x : S M L _ _ M % 0 v 4 I ] ] ] L S L ) ( L v - C C J _ ) M & z n 2 ( ] ] ] J J J L L L c - C C L ` ) V & z M 2 L ] ] ] L S C ",
"( D = 5 0 S S x = 1 _ S 1 S ` ] ] _ _ ] ` ] ` J = 8 0 H C x - 1 ( C 2 D ] ] ] ) ) ] ] ] ` J = 8 0 H C x - < ( C 2 S ` ] ] ) _ ] ",
"` L 2 1 0 0 5 1 $ z ` D 1 c L _ _ _ ] ] ] ] ] L 2 < 0 0 8 - $ z ` H 1 x L ` ` _ ] ] ] ] ] L 1 1 8 0 8 - # z ` L 1 c I _ _ _ ] ] ",
"_ L 1 O 4 1 = v 2 c _ _ 1 2 M L L J L _ _ _ _ L < + 4 < - c 2 x ) ` 1 2 M L L J L ) ` ` ) L 1 + 2 1 < c 2 x ) _ 2 2 n J L J I _ ",
"V D = X = 5 S J 4 0 S _ n - 8 c n x x x v M C J & o & 5 S J 2 8 S ` M & 0 x n x x x c C C J - o % 8 C J 2 0 C ` n = 0 c v x z x ",
"1 c 2 o n ] ` I z 1 v L J 1 : 8 8 8 8 8 8 8 8 v 2 o n ] ] I z 1 n J L 2 - 8 8 8 8 8 8 8 8 c 2 o M ` ` ( x 2 n J J 2 - 8 8 8 8 8 ",
"2 5 4 1 L ` ( D 8 - 0 n c 8 # 2 8 8 8 8 8 8 0 8 2 < L ` _ J 0 - 0 n x 0 # 2 8 8 8 8 0 8 8 0 2 - J ` ) J 0 - 0 n n 8 # 2 8 8 8 8 ",
"5 0 1 v L L L M 2 $ 4 8 8 8 1 + 1 8 8 8 8 8 8 0 1 b L L J M 2 $ 7 8 8 0 2 + 1 8 8 8 8 8 8 0 1 n I L L M 2 $ 2 8 8 0 1 + 1 8 8 0 ",
"5 4 = z M n c 0 8 - $ 2 8 8 - o o & 2 5 8 8 2 4 - 0 M n c 0 8 - $ < 8 8 < X . & 2 8 5 8 2 4 - 0 M n c 0 8 - $ 1 8 8 : o X % 4 1 ",
"% $   1 8 8 8 5 0 1 + o $ = 8 n - . # & $ $ $ #   < 0 8 8 0 8 1 # + # & 5 M - X + & $ # $ $   1 0 8 8 8 0 1 + + $ % 8 n - X + + ",
"5 5 = = 4 8 8 0 2 $ 2 0 8 v J L J 2 z z 8 5 8 5 - & 2 0 8 0 2 $ 2 0 0 c J L J 2 0 x 8 8 8 5 - % 4 8 8 0 2 $ 2 8 8 v J ) J 2 0 x ",
"0 c M v 1 4 5 4 # - n H J L ` ` ) V 2 S M c x x M M 1 2 8 2 # - x H J L ` _ ) M 5 S M c x z M M 1 2 8 2 # = n J J L _ _ ) M 5 S ",
"L J J I S = = 5 v - z J L ` ] ] ` J 8 C _ _ J J J L S = & 8 v - z J L ` ] ] ` L 8 C ` _ L J L L S - % 8 n - z J L _ ] ] ` L 8 n ",
"_ S v S I 5 n ` H 1 c J L ` ] ] _ ( n J ] ] _ S n S L 8 n _ J 1 c J L ] ] ] _ L n D ` ] _ C n C L 8 n _ J 1 x J ( ` ] ] _ ( n C ",
"L c 5 0 M 0 J _ c 4 S I I I _ ] _ L v M I _ ) x 8 z M 0 L _ v 2 S L L ) _ ] _ L n n L _ ) x 8 z M z J _ n 2 C L L ) _ ` _ L M n ",
"n 8 8 8 5 8 M v 1 5 J ' _ I J I I I x 2 v J M 8 8 8 5 8 M c 1 5 J ` _ I L ) L L c 2 v J V 8 8 8 2 8 M n 2 2 J ] _ I L ) L L x 2 ",
"0 8 8 4 = c 0 8 = 2 S ] ] ` I J J I 0 + 8 x 0 8 0 2 & c z 8 = 1 S ] ] ] L J J ( z # 8 x 0 8 8 2 & c z 8 - < S ` ] ` L J J ) x o ",
"4 4 : O = 0 0 8 $ + x J _ _ J v c S 2 + $ 5 8 5 - O & z 0 8 # # x J _ ) J n c S 2 O $ 5 8 5 - # & 0 0 8 # # z J _ _ J n n C 2 o ",
"$ $ O # & 5 1 # o = = 8 x x 0 4 - = 1 8 1 $ & # O # & 8 < # o = - 8 z x 0 4 - = 1 8 < $ % # + # & 5 1 $ o - - 5 x z 0 7 - - 1 1 ",
"4 O & C 2 % - 2 1 C 8 - $ # % = - 5 8 8 8 5 5 # & C 2 & - 2 < C 8 - $ + % * - 5 8 8 8 8 5 # $ C 2 % - 2 - C 8 - $ # & % - 2 8 & ",
"8 % n I C 8 8 n z V L J 2 : 8 8 8 8 8 8 8 8 8 $ n ( C 0 8 n 0 M L J 2 1 8 8 8 8 8 8 8 8 8 $ n I C 0 8 n z C L J 2 < 8 8 8 0 8 % ",
"z 4 L _ I c 8 C x 2 c - = x 0 x n z 8 8 8 0 x 2 L _ L x 0 C x 5 c - & x 0 c n z 8 8 8 0 x 2 J _ ) c 8 M x 2 b < & z 0 x n 0 0 - ",
"J 8 n _ ) M M _ L < $ & 2 L _ _ _ S z v n S J 5 n _ _ M V _ D < $ & 1 J _ _ ] S x c M C J 8 n _ _ M M _ J 1 $ & 1 J _ ` ` C x c ",
"( n = n n I ` ( v $ v M 2 ) ] ] ] L D I ) W ( n = n n L _ ( v & n M 4 I ] ] ] L J ) _ I ) n & n n I _ ) n % c C 5 L ] ] ' I J I ",
"_ J - 8 0 C M 0 & 2 ` C 1 C ` ] ] _ _ ] ] ] ` L - 5 0 M M 0 & 2 _ S 1 C _ ] ] _ _ ] ] ] ` J - 8 8 M n z & 2 _ S < C ` ] ' _ _ ' ",
"` L 1 1 8 8 2 < $ x ` L 1 z L _ _ _ ] ] ] ] ` L 2 : 8 0 4 1 $ x ` J 1 z J _ ( _ ] ] ] ] ` L 2 < 0 0 4 < % z _ L 1 z J _ _ _ ] ] ",
") L - o 1 - 1 M 2 x _ _ 2 1 n L L D D L _ _ ( L < o 1 - 1 M 2 x W _ 4 1 n J L J J L ( _ _ L 1 o 1 - : n 2 z I _ 5 1 n J J J J J ",
"M S - o - c L J 5 8 C _ V & 8 z c z 0 0 x n n D = o = c L J 5 8 C _ M = 8 z x z 0 z x n n D = o = c L L 5 8 C _ V * 8 x c 0 0 0 ",
"8 x 2 o V ] _ I z 1 c J L 2 = 8 8 8 8 8 8 8 8 x 4 o V ] ] L x 1 v J J 4 - 8 8 8 8 8 8 8 8 x 4 o M ] ` I x 1 c J J 5 = 8 8 8 0 : ",
"# 8 2 2 I _ _ S 8 = z x x 8 # 2 8 8 8 8 8 8 8 4 1 2 I ` ) D 8 = 8 c c 8 + 1 0 8 8 8 8 8 8 8 2 2 I _ _ D 8 = 0 c x 8 + 2 0 8 8 = "
};
