/* XPM */
static char *_5726a1ded594ad5ce1ee4bd94ddd0ffTbJVihqONQPylS8o[] = {
/* columns rows colors chars-per-pixel */
"64 64 225 2 ",
"   c None",
".  c #000000",
"X  c #0A0B0C",
"o  c #010A14",
"O  c #010D19",
"+  c #05111C",
"@  c #1A1716",
"#  c #110F0E",
"$  c #271E18",
"%  c #291007",
"&  c #2D221B",
"*  c #031322",
"=  c #07192B",
"-  c #051D34",
";  c #181C23",
":  c #08223B",
">  c #122335",
",  c #0D202A",
"<  c #222222",
"1  c #392C26",
"2  c #3B3B3D",
"3  c gray19",
"4  c #38302F",
"5  c #6E311B",
"6  c #4A3A35",
"7  c #4C3027",
"8  c #67382A",
"9  c #502A1F",
"0  c #53433B",
"q  c #61433B",
"w  c #032443",
"e  c #06294C",
"r  c #0D2C4B",
"t  c #0C2945",
"y  c #1A3148",
"u  c #042D54",
"i  c #06325B",
"p  c #0A345D",
"a  c #163557",
"s  c #1A2D42",
"d  c #393B47",
"f  c #263648",
"g  c #0B3B6B",
"h  c #0B3865",
"j  c #063D73",
"k  c #0A3F74",
"l  c #113D69",
"z  c #403A41",
"x  c #3D475E",
"c  c #084077",
"v  c #0A437B",
"b  c #064077",
"n  c #144474",
"m  c #184A7D",
"M  c #28446A",
"N  c #344668",
"B  c #284D7A",
"V  c #375572",
"C  c #434343",
"Z  c #4D4C4B",
"A  c #5B5B5B",
"S  c #684D47",
"D  c #6F504B",
"F  c #4C5269",
"G  c #695B67",
"H  c #686868",
"J  c #787878",
"K  c #786F6F",
"L  c #4E6076",
"P  c #9F543B",
"I  c #A05136",
"U  c #885D53",
"Y  c #A75D43",
"T  c #B16F58",
"R  c #946E6F",
"E  c #BD7260",
"W  c #AF776C",
"Q  c #C67A66",
"!  c #CA755E",
"~  c #C98B7C",
"^  c #D78C77",
"/  c #0B4781",
"(  c #0E4A86",
")  c #0F4D89",
"_  c #104E8C",
"`  c #174E85",
"'  c #14518D",
"]  c #1E558B",
"[  c #0F5192",
"{  c #135493",
"}  c #16599B",
"|  c #1A5C9D",
" . c #175797",
".. c #255D95",
"X. c #245488",
"o. c #2C639A",
"O. c #356697",
"+. c #195EA2",
"@. c #155CA1",
"#. c #1B60A5",
"$. c #1D65AB",
"%. c #1F69B2",
"&. c #1C68B4",
"*. c #2464A5",
"=. c #366DA4",
"-. c #216BB4",
";. c #216EBA",
":. c #2371BD",
">. c #2D74BB",
",. c #2F73B6",
"<. c #3276BA",
"1. c #3479BE",
"2. c #3876B4",
"3. c #3E75AC",
"4. c #4D6885",
"5. c #54718E",
"6. c #7B758A",
"7. c #687895",
"8. c #4576A7",
"9. c #447DB5",
"0. c #1F71C1",
"q. c #2374C3",
"w. c #2C7CCC",
"e. c #2977C5",
"r. c #387DC1",
"t. c #277ED5",
"y. c #4481BE",
"u. c #6A8BAA",
"i. c #7794B0",
"p. c #7A8691",
"a. c #3E82C6",
"s. c #2883DD",
"d. c #388ADC",
"f. c #2986E3",
"g. c #2C8AE8",
"h. c #398DE0",
"j. c #3792EE",
"k. c #3C97F2",
"l. c #4386C9",
"z. c #4B8CCD",
"x. c #4586C7",
"c. c #5691CB",
"v. c #4F90D1",
"b. c #5493D3",
"n. c #5997D5",
"m. c #5C9AD8",
"M. c #518ECD",
"N. c #6697CB",
"B. c #649ED8",
"V. c #6AA4DE",
"C. c #65A1DD",
"Z. c #79A4D0",
"A. c #449FF9",
"S. c #4395E6",
"D. c #4BA4FD",
"F. c #6AA5E0",
"G. c #6FA9E3",
"H. c #73ACE6",
"J. c #76AEE8",
"K. c #78AFE7",
"L. c #7DB4EC",
"P. c #7AB1E7",
"I. c #7FB7F3",
"U. c #828282",
"Y. c #8B8B8B",
"T. c #9B9A9A",
"R. c #AD8E91",
"E. c #96A3B8",
"W. c #A8A8A8",
"Q. c #B7B7B7",
"!. c #A8ABB7",
"~. c #A09BAE",
"^. c #CF9383",
"/. c #E39D8B",
"(. c #D0A398",
"). c #E4A79D",
"_. c #FFB19F",
"`. c #D4ACA8",
"'. c #D1B5B6",
"]. c #F3AFA1",
"[. c #FBB2A2",
"{. c #F9B8A9",
"}. c #EEB1A5",
"|. c #FAC6BA",
" X c #EFC0B6",
".X c #D0C0BC",
"XX c #80B6ED",
"oX c #84B9EE",
"OX c #89BCEF",
"+X c #8DBEF0",
"@X c #87AEE1",
"#X c #A4B4D0",
"$X c #C2B8C5",
"%X c #93C2F1",
"&X c #9BC6F2",
"*X c #9EC8F4",
"=X c #A3CBF4",
"-X c #A8CFF6",
";X c #ACD1F7",
":X c #B2D5F8",
">X c #BCDBFA",
",X c #B3D4F7",
"<X c #B1C3D5",
"1X c #C7C6C6",
"2X c #D7D5D5",
"3X c #C7C7DA",
"4X c #FBCDC3",
"5X c #F6CDC5",
"6X c #FDD0C6",
"7X c #FED4CB",
"8X c #FDDBD4",
"9X c #FADEDB",
"0X c #E6C9CB",
"qX c #FEE3DF",
"wX c #C2DEFA",
"eX c #DBDDEC",
"rX c #C9E2FB",
"tX c #DCEDFE",
"yX c #E3E3E3",
"uX c #EBE8EB",
"iX c #FCE6E3",
"pX c #FEE9E6",
"aX c #FFECE8",
"sX c #F4F4F4",
"dX c #E2F0FE",
/* pixels */
"                                                          $ $ $       $ $ $                                                     ",
"                                                          1 6 0 7     0 0 6 &                                                   ",
"                                          %.            g y 3 1 4 1 1 1 3 3 a j                                                 ",
"                                        -.-.%.%.#.[ ' _ [ ( - = f < & @ = g ..o._                                               ",
"                                  a.l.:.%.%.1.l.l.l.l.l.l.l.=.=.{ w * s O.z.m.F.y.8.                                            ",
"                              r.a.n.C.z.a.a.n.L.L.P.L.L.L.L.L.L.n.=.' { 8.Z.I.oX=X=X1.)                                         ",
"                            l.H.F.a.r.C.L.L.L.L.L.L.L.L.L.L.L.L.=X%Xv.| M L N.%X>X:XH.1.v                                       ",
"                          >.H.C.1.n.V.F.F.H.L.L.L.L.L.L.L.L.L.L.XX;X&Xc. .e V %X:X-XXXV.] c                                     ",
"                        %.>.m.>.%.-.>.1.1.b.G.J.L.L.L.L.L.L.L.L.oX;XwX%Xv.] o.J.oXL.L.H.<.(                                     ",
"                        -.>.<.>.>.>.n.H.J.v.>.z.P.L.L.L.L.oXoXXX;X>X>X%XL.9.{ l.L.L.L.L.G.2.v                                   ",
"                      _ r.G.H.H.H.H.l.C.L.J.J.n.z.J.L.L.+X:X:X+X;X>X&XL.L.v.$.r.J.L.L.L.L.V...                                  ",
"                      ,.F.J.P.P.L.L.H.K.L.L.&X&Xn.z.P.oX:XtXwX:X%XOXL.L.L.b.} { >.a.L.L.L.L.V.1.)                               ",
"                    -.,.r.e.1.r.G.L.L.L.L.&X>X;XJ.n.z.J.%XwX>X%XL.L.L.L.oXb.} b _ 1.P.L.L.L.L.F...                              ",
"                  l.y.' #.( ( ( <.H.=X;X;XrXdXrX*Xm.r.J.L.+X+XL.L.L.L.L.L.b.} j ( -.l.J.L.L.L.L.o.                              ",
"                  l.c.( #.c j j ( 2.K.:X>XrXtXtX-XJ.v.3.P.L.L.L.L.L.L.L.m.>.%.' ( %.>.J.L.J.v.F.2.t                             ",
"                  l.c.v ( m E.E.E.o.<.K.:X-X&X:X-XI.N.] K.L.L.L.L.L.L.L.z.%.%.| ( %.>.l.L.J.1.C.a.:                             ",
"                  *.<.M G E.iXaXpX!...c.;X*XP.OX%XI.N.' z.P.L.L.L.L.L.B.r.-.-.| ( -.-.>.J.P.n.z.>.m :                           ",
"                  ) +.N Q 9XpXpXaXaX5.,.XX+XL.F.m.L.B.{ | v.P.L.L.m.v.1.&.-.-._ u { -.-.v.P.P.r.&.;.r                           ",
"                  _ @.N Q 4X9X9X6X(.G ` M.I.L.b.a.L.V.$.v -.v.n.n.e.&.-.%.%.-.n o v | -.;.b.J.r.%.-.r                           ",
"                  ) +.N Q |.7X6X}.Q T F 2.H.L.n.r.V.V.*.v } } } } } | #.%.-.;.n .   v @.%.-.v.>.%.-.r                           ",
"                  )  .B R /.6X5X/.^ ).L { b.XXn.%.r.b.#.p / ) ) ) ) )  .#.;.%.l .     v $.-.%.-.-.&.r                           ",
"                    ) +.N E 5X|.P 5 5 z ] z.I.n.&.-.&. .* { +.+.+.*. .( } -.} e .     v $.-.-.+.-.-.r                           ",
"                    (  .M E |.5XT 6 # 8 N 9.XXn.$.$.%.` + m ] ] g } t p %.-. .t .     v +.-.%.{ } -.r                           ",
"                      j M E 5X6X]..X2 K 4.9.P.v.} ) #.i > Z.P.B.y n r r } &.l .         / #.-.$.v } r                           ",
"                      j N E 6X7X].6 , !.u.3.b.;.} ( ` + n B.G.<.g - n _ { { w .         v +.-.-.: n r                           ",
"                        N W 9XqX}.3 i <Xu. .:.%.| c p = g m m g = n $._ v e .             / #.*.- e -                           ",
"                        W {.iXiX6XN.v.rXu.) %.%. .u 2 R., + O O u | { k j : .             c +.t   o o                           ",
"                        Q 6XiXpXiXeXeXyXu.[ %.#.i 2 `. X^.W a i j | _ j w O               v +.=   .                             ",
"                        ! {.8XiXpXpX9X7X7.{ &.} w 0 7X6X[.).B b { ) v w O                 v +.=                                 ",
"                          D }.8X8X8X7X6X7.{ #.i x R.|.[.[.).B j ) v : O                     ) *                                 ",
"                            S ^ {.4X7X7X7./ i d R.|.|._.[.).V j w = O                       g O                                 ",
"                              9 D ~ /.{.7.u d ~ ).6.K U ~ q > - o                           - O                                 ",
"                                . 9 8 D f o 7 U F [ v > 9 . . .                                                                 ",
"                                    % 7 S A S q F ;.+.h - t r                                                                   ",
"                                    E ).4X7X{.[.R.e.;._ ' -.$.+                                                                 ",
"                                  D '.iXeX3X0X[.R.;.t.q.-.-.:.p - - *                                                           ",
"                                k *.3XuXoXA.@X'.6.{ g.t.q.;.t.t.q.-.:                                                           ",
"                                v +.#XXXk.t.e...X.' t.g.t.0.q.t.s.:.y X                                                         ",
"                                  / *.w.t.q. .6.R.` 0.g.t.q.t.q.:.-.5.2 # @                                                     ",
"                                    k k ` ` 6.].].R.{ g.g.t.g.g.f.q.5.K K A C                                                   ",
"                                      8 W `.5X4X{.R. .g.t.q.t.g.g.f.>.5.J J A 0                                                 ",
"                                        P ^ |.7X6XW.{ g.t.;.;.0.s.f.q.V Z H A C                                                 ",
"                                          P ^.7X$X8.' f.g.q.t.t.q.:.;.4.K A H T.                                                ",
"                                            Y R x.&.[ f.g.t.A.A.k.e.&.i.W.Y.H H                                                 ",
"                                              N } $.{ k.k.g.j.D.D.d.:.E.Q.Q.Y.A                                                 ",
"                                                / ( } D.D.g.g.j.d.w.=.p.Q.yX1Xp.C                                               ",
"                                                    ' >.k.g.k.j.:.%.u.T.W.2XuXQ.J                                               ",
"                                                      / &.t.j.D.d.:.E.1XW.T.1XyXT.C                                             ",
"                                                        v %.t.A.D.d.i.#X1XW.U.Q.T.C                                             ",
"                                                            >.d.D.D.s.i.yXyXW.J Y.C                                             ",
"                                                              -.h.D.a.u.2XsXyXT.C                                               ",
"                                                                ;.h.w.4.Q.yXsXQ.A                                               ",
"                                                                  ;.    J Q.sXyXT.C                                             ",
"                                                                          W.uXyXT.C                                             ",
"                                                                          U.Q.yXT.C                                             ",
"                                                                            W.1Xp.                                              ",
"                                                                          A U.Y.                                                ",
"                                                            . .           @ 3 <                                                 ",
"                                          . . . . . . . . . . . . . . . .       .                                               ",
"                                      . . . . . . . . . . . . . . . . . . . . . . . . .                                         ",
"                                    . . . . . . . . . . . . . . . . . . . . . . . . . . .                                       ",
"                                      . . . . . . . . . . . . . . . . . . . . . . . . .                                         ",
"                                            . . . . . . . . . . . . . . . . . . .                                               ",
"                                                                                                                                "
};
