/* XPM */
static char *_549c95a7b064ca8fd05dc762bd6c316TEZ44ErgP1GhZRM4[] = {
/* columns rows colors chars-per-pixel */
"64 64 229 2 ",
"   c None",
".  c #000000",
"X  c #05090D",
"o  c #010B14",
"O  c #010C18",
"+  c #06111C",
"@  c #1C1716",
"#  c #110B09",
"$  c #271E1A",
"%  c #2C1209",
"&  c #2E211B",
"*  c #041424",
"=  c #081A2C",
"-  c #031B33",
";  c #091E33",
":  c #021E39",
">  c #121720",
",  c #03213D",
"<  c #0C233A",
"1  c #152433",
"2  c #382C26",
"3  c #3D312C",
"4  c #383939",
"5  c #2B2C32",
"6  c #6D311C",
"7  c #4B332B",
"8  c #6A392B",
"9  c #4E281D",
"0  c #53443B",
"q  c #61433B",
"w  c #0B2640",
"e  c #072746",
"r  c #1D3045",
"t  c #062D53",
"y  c #093259",
"u  c #16314D",
"i  c #2F3648",
"p  c #0A3A68",
"a  c #063D73",
"s  c #0A3E72",
"d  c #123F6A",
"f  c #493E43",
"g  c #29425E",
"h  c #0A447C",
"j  c #084077",
"k  c #15497C",
"l  c #194879",
"z  c #13406C",
"x  c #384868",
"c  c #304E72",
"v  c #434243",
"b  c #46474B",
"n  c #5A585B",
"m  c #584945",
"M  c #664E49",
"N  c #71514B",
"B  c #4C556D",
"V  c #676767",
"C  c #737373",
"Z  c #7A7A7A",
"A  c #736573",
"S  c #50657C",
"D  c #A25238",
"F  c #995138",
"G  c #8A5E54",
"H  c #A85F46",
"J  c #AC6A54",
"K  c #917269",
"L  c #B1786C",
"P  c #C0745D",
"I  c #C87B66",
"U  c #CC826E",
"Y  c #D18E7C",
"T  c #0B4781",
"R  c #0D4A85",
"E  c #0F4C89",
"W  c #104F8C",
"Q  c #184D83",
"!  c #13518D",
"~  c #1D558C",
"^  c #1C5083",
"/  c #135494",
"(  c #135799",
")  c #16599C",
"_  c #1A5C9D",
"`  c #1B5794",
"'  c #0E5193",
"]  c #215386",
"[  c #285C92",
"{  c #28629B",
"}  c #3C6997",
"|  c #195EA2",
" . c #165DA3",
".. c #1C61A5",
"X. c #1D65AC",
"o. c #1E69B2",
"O. c #1C6BB9",
"+. c #2666A7",
"@. c #346BA2",
"#. c #3773AE",
"$. c #216BB4",
"%. c #226EBA",
"&. c #2371BD",
"*. c #2C73BA",
"=. c #2C71B5",
"-. c #3177BC",
";. c #3379BE",
":. c #3778B7",
">. c #415C80",
",. c #576D87",
"<. c #5B738C",
"1. c #596F90",
"2. c #526E8D",
"3. c #757186",
"4. c #4677A8",
"5. c #5C7FA2",
"6. c #457EB7",
"7. c #2373C2",
"8. c #2B7BCA",
"9. c #2C78C4",
"0. c #397EC2",
"q. c #367CC1",
"w. c #277FD5",
"e. c #887B8B",
"r. c #4883BD",
"t. c #5E81A5",
"y. c #7A92AA",
"u. c #7E8892",
"i. c #3C80C4",
"p. c #2883DD",
"a. c #2780D9",
"s. c #3588DB",
"d. c #2A87E3",
"f. c #2A88E6",
"g. c #2E8CEA",
"h. c #3C8FE2",
"j. c #3992EC",
"k. c #3B97F2",
"l. c #4083C6",
"z. c #4386C9",
"x. c #4B8CCE",
"c. c #4588CB",
"v. c #538BC3",
"b. c #5992CA",
"n. c #4E8FD0",
"m. c #5392D2",
"M. c #5C98D5",
"N. c #5E9BD9",
"B. c #5997D5",
"V. c #4F90D1",
"C. c #639BD4",
"Z. c #6B99C7",
"A. c #65A1DD",
"S. c #6AA3DC",
"D. c #7AA6D4",
"F. c #429CF7",
"G. c #4996E2",
"H. c #4BA4FD",
"J. c #6BA6E1",
"K. c #6DA8E3",
"L. c #73ACE6",
"P. c #76AEE8",
"I. c #7DB4EC",
"U. c #77B0E9",
"Y. c #77B3F4",
"T. c #868686",
"R. c #939393",
"E. c #9C9C9C",
"W. c #9A828D",
"Q. c #A48C98",
"!. c #A18885",
"~. c #A296A7",
"^. c #97A4B8",
"/. c #88A1BB",
"(. c #ABABAA",
"). c gray71",
"_. c #B9B8B8",
"`. c #A5ACBB",
"'. c #D09889",
"]. c #DBA198",
"[. c #CBA59C",
"{. c #F1AA9A",
"}. c #D0B0AE",
"|. c #F3AFA1",
" X c #FDB3A2",
".X c #F7B8AA",
"XX c #E9AEA1",
"oX c #E19B89",
"OX c #F8C4B8",
"+X c #B3B8C8",
"@X c #81B6EC",
"#X c #85B9ED",
"$X c #8ABCEF",
"%X c #8DBEF0",
"&X c #81B8F0",
"*X c #90BFF0",
"=X c #8FB0DE",
"-X c #94C2F1",
";X c #9CC7F3",
":X c #99C3EE",
">X c #A4CCF5",
",X c #ADD2F7",
"<X c #B3D5F8",
"1X c #BADAFA",
"2X c #B4D5F7",
"3X c #BCCCDB",
"4X c #C6C5C5",
"5X c #DBD9DA",
"6X c #D3C8D3",
"7X c #FBCEC4",
"8X c #F0CDC9",
"9X c #FDD0C7",
"0X c #FDD4CB",
"qX c #FEDBD4",
"wX c #FEDFDA",
"eX c #F2DCDC",
"rX c #E7CDCB",
"tX c #FFE2DD",
"yX c #C1DEFB",
"uX c #DBDCED",
"iX c #CAE2FA",
"pX c #DAECFE",
"aX c #E3E3E3",
"sX c #EAE8EC",
"dX c #FCE6E4",
"fX c #FEE9E5",
"gX c #FFECE8",
"hX c #F4F4F4",
"jX c #E1F0FE",
/* pixels */
"                                            & & $       $ $ $                                                                   ",
"                                          & 7 0 0     2 0 0 2                                                                   ",
"                                        a y 5 2 3 3 2 7 2 2 r p             $.                                                  ",
"                                      R { { z ; @ $ $ r = , h ! ! E / | o.o.o.$.                                                ",
"                                    4.r.J.N.x.@.r * , ! { #.l.z.z.z.z.z.z.q.o.o.*.z.l.                                          ",
"                                E :.:X>X#X#XD.4.( ! @.b.I.I.I.I.I.I.I.I.I.C.i.0.c.N.B.z.i.                                      ",
"                              h -.K.,XiX-XC.S g ` n.-X>XI.I.I.I.I.I.I.I.I.I.I.I.J.0.z.A.P.l.                                    ",
"                            s E S.I.;X1X;Xc e ` n.-X,X@XI.I.I.I.I.I.I.I.I.I.P.J.J.A.N.*.A.P.;.                                  ",
"                            R =.L.I.I.@XU.@./ x.-X1X<X#XI.I.I.I.I.I.I.I.P.K.B.;.;.*.%.$.*.N.*.$.                                ",
"                          h =.K.I.I.I.I.x.` #.I.-X1X1X,X#X#X#XI.I.I.I.I.m.*.x.P.L.N.*.*.*.-.*.$.                                ",
"                          ] S.I.I.I.P.P.i...x.I.I.-X1X,X$X<X2X*XI.I.Y.x.B.P.U.I.S.l.K.L.L.L.K.0.!                               ",
"                      R ;.S.I.I.I.I.c.*.` ) x.I.I.@X#X-X,XyXpX2X%XU.x.m.-X;XI.I.U.L.I.I.U.I.U.K.-.                              ",
"                      ~ J.I.I.I.I.U.0.' j / V.I.I.I.I.@X*X1XyX:XI.c.m.P.>X1X;XI.I.@XI.L.0.;.;.q.%.$.                            ",
"                      [ U.I.I.I.U.c.=.E a ( V.I.I.I.I.I.@X%X%X@XI.0.N.;XiXjXiX,X,X>XP.;.W T E ../ r.c.                          ",
"                    , #.K.x.U.@XU.q.$.E W X.*.B.I.I.I.I.I.I.I.I.4.v.L.>XpXpXiXiX<X#X:.E a a a | R v.x.                          ",
"                    ; 0.S.-.P.U.x.=.X.E ( $.o.c.@XI.I.I.I.I.I.U.[ m.I.>X<X;X>X<X@X;.[ ^.`.^.l R h v.x.                          ",
"                  ; k *.x.B.U.U.-.$.$.E ) o.o.;.N.I.I.I.I.I.I.n.~ b.I.-X$XU.-X,XB.{ ^.dXgXfX`.A g =.+.                          ",
"                  w $.o.-.U.I.m.$.$._ y Q $.o.o.-.V.N.I.I.I.m.../ M.I.A.A.I.-X$X:.2.dXgXfXfXqXU x  .!                           ",
"                  w $.o.;.L.m.$.$._ h O z $.o.$.o.o.*.B.B.m.$.T ..A.I.c.V.I.I.B.^ n [.9XwXwX9XI x ) /                           ",
"                  < $.o.*.m.%.$._ h   . z %.$.o.X.) ) ) ) ) ) h ..A.S.q.V.#XL.:.c J P |.9X0XOXI x ) /                           ",
"                  w $.$.$.o.o.o.T     . p X.o.X.( E R E R E T p _ V.i.o.V.I.N.) >.].'.oX8X9XoXK c ) W                           ",
"                  w o.o...$.o.o.h     . w ( $.| R ` X...| | ` * ^ o.o.o.V.#Xm.~ f 6 6 F OX7XU x | W                             ",
"                  w o._ W o.o...T     . , / $.o.d < | z ~ ~ ] + Q o.X.X.m.#Xr.g 8 + 7 H OX9XL x ( W                             ",
"                  w _ h X.$.+.T         . y o.) t w k 1 C.P.K.1 t _ W ) n.I.r.S Z 4 }.|.9XOXI x a                               ",
"                  w k ; $.$...h         . , ! ( R k ; p =.S.C.l * k E ) $.n.6.t.+X1 3 XX9X9XP x a                               ",
"                  - t = ..X.h             X w j E X.k - s k Q p > t a ) o.&.) t.6Xy 5 XXwXwXU x                                 ",
"                    o   < | h             . - s j / | t + O O > !.v t ) o.o.( 5.yXG.C.8XdXdXOXL                                 ",
"                    .   * _ h               o , a R | s t p L '.OX}.v t _ $.( 1.eXuXuXdXfXfX0XU                                 ",
"                        * _ h                 o , j E ( j l ]. X7X0Xm , ( o.) 1.0XqXgXfXfXqX.XI                                 ",
"                        + T                     o , h R s l ]. X.X7X[.i y _ ( 1.0X0XqXqXqX.XN                                   ",
"                        O s                       o - : s l ]. X X.XOX[.b t T 1.0X0X9X.XY N @                                   ",
"                        o -                           X - < N I G A 3.[.'.f t 2..XoXY N 9 #                                     ",
"                                                        . . . 9 1 h ' B G 7 o r N 6 9 #                                         ",
"                                                          e w , p ..O.B q M M M 7 %                                             ",
"                                                        + ..$.' R $.%.~. X.XqX7XXXL                                             ",
"                                                    = < u $.$.$.%.p.O.Q. XrX6X5XgXrXN                                           ",
"                                                  ; X.7.p.a.%.&.w.w.' e.}.=XF.Y.uX6X$.h                                         ",
"                                                  r %.p.p.&.$.p.k.w.' ] [ 7.w.k.Y.+X+.a                                         ",
"                                            @ # 4 ,.$.&.&.p.7.p.w.w.[ e.e.[ 7.w.8.+.l                                           ",
"                                          b n V C <.7.p.d.f.p.f.w.( e.|.|.e.Q ~ l h                                             ",
"                                        v n C C <.-.p.f.p.p.7.p.w.( e.7X9X8X}.L 8                                               ",
"                                        v V V b c 7.g.p.7.&.%.p.g. .~.0X0XOXY D                                                 ",
"                                        E.C n C 2.$.7.7.p.a.%.p.w./ @.+X0X'.D                                                   ",
"                                        V V T.(.y.o.&.h.H.k.p.p.w./ o.c.e.H                                                     ",
"                                        n T.).4X/.$.s.H.H.j.g.k.F.| |  .x                                                       ",
"                                      v C 4XaX_.u.4.8.s.j.f.f.H.H._ T W                                                         ",
"                                      C _.sX5X(.E.y.o.&.k.k.g.j.9.`                                                             ",
"                                    0 R.aX4XR.(.4X^.&.s.H.k.a.o.R                                                               ",
"                                    v R.).T.E.6X).y.s.H.H.a.o.h                                                                 ",
"                                      T.Z E.aX5X/.a.H.H.h.&.                                                                    ",
"                                      v R.aXhX5Xy.8.H.j.&.                                                                      ",
"                                      n ).hXsX).2.i.j.$.                                                                        ",
"                                    v R.aXhX_.Z     %.                                                                          ",
"                                    v R.aXsX).C                                                                                 ",
"                                    7 R.5X_.T.                                                                                  ",
"                                      u.4X(.Z                                                                                   ",
"                                        T.T.V                                                                                   ",
"                                          4 @               . .                                                                 ",
"                                            . . . . . . . . . . . . . . . . . . .                                               ",
"                                      . . . . . . . . . . . . . . . . . . . . . . . . .                                         ",
"                                    . . . . . . . . . . . . . . . . . . . . . . . . . . .                                       ",
"                                      . . . . . . . . . . . . . . . . . . . . . . . . .                                         ",
"                                            . . . . . . . . . . . . . . . . . . .                                               ",
"                                                                                                                                "
};
