/* XPM */
static char *_9ffc4466e1c48acc1785075dcef2206egjxOepboRkV9HMF[] = {
/* columns rows colors chars-per-pixel */
"64 64 143 2 ",
"   c #8BB7DC",
".  c #8FBADD",
"X  c #93BDDE",
"o  c #94BEE0",
"O  c #9CC2DE",
"+  c #A3C7DF",
"@  c #97C2E2",
"#  c #9CC2E1",
"$  c #A3C6E3",
"%  c #A8C7E4",
"&  c #A6C9E4",
"*  c #ACCCE5",
"=  c #ADCEE9",
"-  c #B2CEE5",
";  c #B2CEE9",
":  c #AFD1EA",
">  c #B4D1E6",
",  c #BAD5E7",
"<  c #B5D2E9",
"1  c #BBD5EA",
"2  c #BED9EC",
"3  c #C3D9E7",
"4  c #C1D7EB",
"5  c #C4DBEC",
"6  c #CADEED",
"7  c #D0DDED",
"8  c #C4DCF0",
"9  c #CADEF0",
"0  c #C7E2ED",
"q  c #CDE1EE",
"w  c #D2E2EF",
"e  c #D1E2EE",
"r  c #D5E3EC",
"t  c #D4E2ED",
"y  c #D4E2EF",
"u  c #D3E6ED",
"i  c #D4E5EF",
"p  c #D7E5EE",
"a  c #D6E4EF",
"s  c #D2E3EE",
"d  c #D8E6EF",
"f  c #D8E6EF",
"g  c #D9E8EF",
"h  c #DCE9EF",
"j  c #CBE0F1",
"k  c #CDE0F1",
"l  c #CEE1F0",
"z  c #CDE3F0",
"x  c #CFE2F0",
"c  c #CFE2F1",
"v  c #CFE0F2",
"b  c #CFE5F2",
"n  c #CEE1F1",
"m  c #D1E1F0",
"M  c #D0E1F1",
"N  c #D0E2F0",
"B  c #D0E3F1",
"V  c #D1E3F1",
"C  c #D3E3F0",
"Z  c #D2E2F1",
"A  c #D1E2F2",
"S  c #D3E3F2",
"D  c #D2E3F3",
"F  c #D5E3F0",
"G  c #D1E5F0",
"H  c #D2E4F0",
"J  c #D3E5F1",
"K  c #D4E4F1",
"L  c #D7E5F0",
"P  c #D6E4F1",
"I  c #D5E6F0",
"U  c #D5E5F2",
"Y  c #D4E4F3",
"T  c #D7E5F2",
"R  c #D4E6F2",
"E  c #D3E6F5",
"W  c #D5E5F4",
"Q  c #D7E4F4",
"!  c #D6E6F5",
"~  c #D3E4F2",
"^  c #D9E5F1",
"/  c #D9E7F0",
"(  c #D8E6F1",
")  c #DAE7F0",
"_  c #D8E4F2",
"`  c #D9E7F2",
"'  c #DAE6F2",
"]  c #DBE7F3",
"[  c #DDE7F1",
"{  c #D9E7F4",
"}  c #DBE7F5",
"|  c #D9E6F2",
" . c #D7E8F0",
".. c #D7E8F2",
"X. c #D7E8F3",
"o. c #D8E9F1",
"O. c #DAE8F1",
"+. c #DBE8F1",
"@. c #DBEAF1",
"#. c #DBE9F2",
"$. c #DAE8F3",
"%. c #DAEBF2",
"&. c #DCE9F1",
"*. c #DEE8F1",
"=. c #DDEAF0",
"-. c #DCE9F2",
";. c #DEE8F2",
":. c #DFE9F2",
">. c #DFE9F3",
",. c #DDEAF2",
"<. c #DCEAF3",
"1. c #DDEAF3",
"2. c #DEEBF3",
"3. c #DBE9F4",
"4. c #DAE8F5",
"5. c #DCE8F4",
"6. c #DDE9F5",
"7. c #DDEBF4",
"8. c #DEEBF4",
"9. c #DFECF4",
"0. c #DFECF5",
"q. c #DCE9F3",
"w. c #DFEDF8",
"e. c #DBE8F8",
"r. c #E2EDEF",
"t. c #E0E6F2",
"y. c #E0EAF3",
"u. c #E1EBF4",
"i. c #E2EBF4",
"p. c #E3EEF4",
"a. c #E3EDF6",
"s. c #E4EDF4",
"d. c #E5EEF5",
"f. c #E4EEF7",
"g. c #E3EDF5",
"h. c #E9EFF6",
"j. c #E5EEF8",
"k. c #E5F0F4",
"l. c #E6F0F6",
"z. c #EBF1F6",
"x. c #E5F0F9",
"c. c #EBF1F9",
"v. c #F1F5FA",
/* pixels */
"- 1 $ $ < * @ - > * * $ * * - 6 2 1 6 5 6 ;.D 8 9 ~ q K K K $.-.-.-.9.-.s r 9.-.-.b f -.i.$.( 5 > $ 5 g , > 1 q 5 q 5 y 6 5 s 6 ",
"* 1 $   # 1 > > 5 & O - - < 1 f q q K C E ;.j.l q 4 5 6 6.( y -.$.-.u.u.$.g -.-.-.~ l $.-.-.e 1 * > < e : > 1 ( ( K 5 6 3 t -.r ",
"- & # X X 5 5 4 2 - 5 6 - 5 5 F 5 ( l K j.6.6.l 6 1 f -.-.K q h -.h -.9.-.-.$.-.-.-.j s 9.K ~ 0 1 1 6 2 , , 6 6.-.-.q 6 $.g.-.( ",
"- * * O - 2 4 5 * < 4 5 < 6 9 C q $.6.( D W 5 5 q e ( 6.$.r 6 $.-.-.-.$.-.( ( -.6.g.K b r s l 4 1 e e 6 2 1 -.$.-.r q q f ( 6 ( ",
"* $ * $ - * < 6 - * 4 4 6 e t e W 4.6.6 4 q q 1 9 6 < 5 s 0 e $.s q -.u.d.q ..$.0.l...2 C 9 6 5 * 5 5 j 2 j g.-.-.r y 6 5 r 5 < ",
"6 * > * > 6 * > - > > , 6 6 e C W C q 6 l 6 2 - C e 4 1 5 5 $.q 5 q 9.l.-.l K 9.d.-.6 4 9 8 5 ( 1 6 4 1 1 5 K r K f i.$.3 4 6 5 ",
"r > + 1 5 # * 1 ; e 1 5 q 6 9 6 C C e 4 5 j 4 < 4 C C 1 2 0 q 0 q q 5 $.K q K -.0.( K 5 5 l 6 9 - 6 q < * 4 5 q 5 r $.-.7 > , , ",
"4 O = 1 % X > 4 * > 6 5 6 q K r ~ ..K 5 * 6 5 * - 5 6 1 5 2 4 5 q 2 5 ..~ ~ h -.4.j C 6 4 9 0 8 4 5 5 > < 1 6 e 2 4 f h i.5 4 > ",
"- - , - * # - , > ; 3 7 K C e C ~ ~ ( 6 5 s * * O > 1 > < 5 2 * < q ~ q j ..K j b q K 6 8 5 0 l 5 2 4 , 4 , 1 6 , 6 -.( -.5 > 1 ",
"* * * - - + 1 5 6 6 * 5 e M e l l ~ s ( -.e > = = $ 1 > 1 2 & $ , q 4.X.l b 6 5 b ~ 4.5 2 6 C } 2 > 1 q 3 3 6 q , q q - 5 1 3 - ",
"- % 1 - $ * 6 > > 5 * > C l s D C C C q ~ K 4 * * * > q 5 < < 1 * ~ b D 2 D ~ l l ~ X.l ~ $.~ ..0 4 5 4 1 q f - , 6 5 $ 3 , 1 * ",
"4 4 3 + * - 3 - * * * 1 ~ W C K K K ~ e q 5 4 & $ 2 & 2 b 5 2 2 & 2 5 6 l 0 E K D 4.4.E K $.5 5 e f g 5 > < 4 # & - & $ - $ * - ",
"6 < % - * , - - - * * 2 5 6 r s C y s ( C 2 6 5 ; 5 ; 1 8 q 2 1 # = 4 0 ~ D K 4.K 4.K l l 4 2 5 4 6 6 6 6 % - * * X X X o * > * ",
"M 6 5 - - > - - * - > 4 < 2 C K ~ r ( ( i.C 6 6 6 5 - 6 1 1 < < = < 4 5 b D W W X.~ j 2 8 < > 5 5 1 , * 6 > O - * * X % - 1 - - ",
";.[ ^ - - > > * $ * 1 e 4 l q q W ~ 6.d.-.F q e K $.6 6 1 $ 1 W 1 > 2 2 l D R X.X.D z 1 5 1 = 5 $.y 3 - * + + % # * - - - * - , ",
"d.i.( 4 - - > * - $ * ~ e 6 l ~ r l ( 6.F 6 $.-.6 [ d.[ q * > 5 5 < 1 < 5 D W X.W D j 2 2 2 & 5 r 6 3 6 - * $ X X * > $ - * - , ",
"c.i.6.6 > * > > * - & 5 ( M 9 e ~ M } 6.-.} 4.d.$.6 $.$.5 q 1 5 4 * 4 8 4 j j l K l l 2 < = < q 5 q , > % + $ $ @ $ X o - $ 4 , ",
"h.i.~ 6 1 4 > > < < > 1 F ( l 6 6 6 F F F K -.( $.s ( q < ( b q < > q 5 5 l K b W 6 9 0 2 2 < 2 5 4 > & + o $ & $ O X $ - $ 4 6 ",
"[ h.6 5 6 3 - > q l 6 , 5 K l 9 C 9 C ( e 9 } 6 e $...$.[ d._ 4 < 1 & = R X.X.D K q 1 5 j * = < < * > > - ; $ @ * O * l s e K s ",
"6 } 8 ; 5 5 1 > 6 [ C 5 6 6 l 6 D ( K K ( 5 5 q g -.u.$.} c.W 5 5 > 1 4 X.~ R R X.K l 2 1 : < & * $ * 1 ; 2 $ > 2 $ > 5 6 3 q 2 ",
"5 q 8 8 - 6 1 3 s -.W } D } ~ 6 l l.0.l ( -.K C 6.[ d.g.K q K ~ < ; 5 9 8 D W R W l q 5 1 & $ $ , $ * > > 5 , 2 5 1 K 5 6 5 q 6 ",
"~ ~ ~ D 1 1 < 6 d.s K [ 4.5 l l K j.x...} [ ( } j.6.l.-.6 6 w.5 1 2 C l b X.~ ~ l l 1 < * @ = & 4 6 < & 5 F & 4 6 2 -.4 1 q q e ",
"5 8 1 D 9 ; 2 ( i.9 F h.g.l 6.s 4.g.g.d.s -.6.K 4.( C ~ 8 6 q < 5 q ~ 4.K C 8 6 5 8 q = & > * > 6 F 5 ; 7 e 1 4 -.5 6 F 3 l 6 6 ",
"j 2 8 < 1 $ 5 i.w.K ( c.c.~ } i.g.x.g.d.6.i.z.g.C C } C 1 2 4 ; 5 5 D 9 9 9 2 0 5 ; 5 8 , 1 2 1 6 r F 6 e C ( 6 [ 6 K 6.6 r f r ",
"~ < j 1 $ # 4 ( ( e g.g.g.l 6.d.j.c.$.4.d.c.i.6.C 4 ~ ( 1 6 5 2 < 6 4.2 < 9 l l 4 < 2 ..1 1 4 1 1 } l 9 8 4 4 ;.i.-.f i.( e F C ",
"5 : 4 4 & = ~ 4 6 ~ K ( w.K d.;.4.-.s 9.[ -.K W i.5 5 C < ~ 5 4 < 5 C 5 0 8 j 5 0 5 = 4 q < 1 5 < 4 f b 2 2 < ~ C 5 4 y f F F 6 ",
"< : 2 X.9 2 6 K 9 D C u.w.K g.g.l.%.l 4.( -.( ( j.l ! 0 2 5 6 l 2 X.%.K ~ j q z 5 b < 1 5 2 q 6 2 2 C 6 6 5 5 9 K 1 4 6 5 6 W K ",
"< 2 l j 5 1 2 6 K 6.( D D X.D 4.0.6.e u.d.-.-.g.d.} C 2 < 2 5 4.l 4.4.! l 5 b b j l j 1 < q ( 6 6 6 X.( ~ i.q 2 6 6 4 q 6 C q K ",
"< 2 E 2 ; 8 5 6 } C q K C l ~ K i.l F ;.i.6.9 ~ 4.l 5 1 = l 4.5 4.~ ..4.0 2 j q 5 0 ~ 0 4 ( $.s 9.( W d.i.6 4 < 1 1 ; C e C F e ",
": = 2 E 5 j 5 < 9 5 9 W ( D ( l [ 5 y 5 6 9 8 6 < 1 l < & 6 x.X.4.D 0.~ j 8 0 l 2 1 5 5 6 -.p.g.d.D X.6.$.6 9 q < l 6 1 4 F [ e ",
": & $ 8 l 5 4 q 9 C 6 9 0.$.X.l 6 1 6 4 5 6 4 9 4 1 5 < = 2 l 0.X.4.g.4.b D j 5 5 2 5 q q $.K ~ d.-.K W W K 6 K C K e * , 6 9 6 ",
"< 2 2 < 8 4 ..~ 5 K M 9 } W l l 9 < < 1 C 6 1 8 l 6 : < = = 2 4.~ g.l.4.b ~ 5 5 5 5  .q q ( 4 ..g.W W ~ q q 6.q 6 C e < - 1 6 1 ",
"< q $.2 5 C K F q < 2 5 j 5 8 2 5 1 : : 2 2 1 < < * : 4 4 j C 4.g.x.x.W q j 4 5 5 2 q j q j q $.s ~ $.X.q -.$.q 4 6 q , - 5 W e ",
"b ~ 4.~ F W C w.5 < * q 5 2 : 1 q 6 : & < 5 1 < - O q -.X.0.g.x.x.0.g.-.l 6 q 5 q 5 j 6 6 0 q q $.s $.X.C 4.$.9.r 6 > 2 - e l 1 ",
"1 2 8 4.6.4.K ( 2 b b K 0 j 2 : < , , $ < < 2 1 2 4 $.g.w.x.c.d.j.g.x.l.W b q 0 5 ~ $.q 4 5 5 l $.l ( K K 9.6.K 4 1 1 = 1 6 5 1 ",
"< 2 9 K ( -.e 2 9 l 4.e.5 j < & : & : # < 4 < > 6 5 r.$.W -.z.l.l.4.l.x.0.%.8 4 j 4.K ~ 8 X.5 2 ~ l 4.l ~ -...0 * < 4 , 5 5 , 6 ",
": 8 K g.8 2 5 6 C ( i.j < 1 0 < & 1 & $ 1 4 2 * > 4 r 0.$.$.d.c.x.l.x.l.0.D l 5 K 4.K $.5 f -.q l ..} 5 b ( q 4 ; 2 M 1 4 4 5 1 ",
"1 2 2 ~ 9 < 5 M l C 9 5 < 1 l 5 1 < : 1 2 2 2 : < = 5 6.l.c.d.g.c.z.c.x.X.F ( l 4.D b s r u.p.i.4.-.b q q K 5 < 4 * 5 5 2 4 6 3 ",
"1 < 5 2 2 W 2 2 D b < q 4 < l 1 : 2 5 2 4 6 1 ; < 5 K l.l.z.d.l.z.c.x.0.j.$.0.K W K 4 ..4.6.d.h.( $.~ 5 ~ $.r K 4 < 4 q 6 6 e 6 ",
"2 2 C 2 & 2 < 5 ~ 5 q 2 5 2 2 & & j 8 q l 6 > 2 6 ( d.f g.v.g.d.c.d.g.~ ~ 9...~ ~ $.K ..l.w.p.d.6.$...< 1 j b 0.( 9 5 F e 9 F e ",
"8 6 ^ e 6 4 4 2 6 < 6 4 5 < $ * < 5 q 5 ~ j 1 1 6 K i.r d.z.g.l.v.c.-.} s ..4.b K $.q b -.g.h.x.$.g.-.1 , 5 4 9.6 > 2 q 6 1 6 5 ",
"5 y i.6 6 d.} > < - 8 C 5 & & ; = 4 5 2 4 5 5 2 6 K 6.-.d.d.d.h.c.c.d.g.g.6.q I X.$.q K } d.-.-.$.K 4.l 1 4 6.4.7 4 6 6 F 5 5 1 ",
"9 5 t.C q ( ~ 5 = < 9 ; < < * & > 4 1 9 5 5 b 6 q s .. .( d.d.h.c.d.z.6.g.v.4.~ i.i.~ 4.g.c.;.6.6.$.%.4.4 8 g.( 4.-.e e e 6 4 1 ",
"a 6 ;.F 4 5 6 1 1 1 4 ; < 2 < 1 < 5 6 5 5 ~ q q R q R q } d.d.p.j.d.d.4.~ $.%.D ( } ( ( i.z.i.6.u.g.$...X.b j.K e q t 6 0 6 2 1 ",
"t.Q 5 C * 6 6 > 6 6 2 * * 6 < < - 4 6 j 5 4.~ 5 b ..9.K K -.6.i.j.g.-.g.g.l j K l b R K R 4.6.w.z.0.0.0.$.} q C ~ 6 5 6 e i.6 > ",
"-.[ C 5 ,  .e < 5 9 9 5 = < * $ * 3 6 4 < 5 ..~ 5 ~ I $...g.g.i.g.d.} } g.4.5 ~ ! C j ~ z $.j.0.z.z.$.g.4.K -.( g.} F Q p.( 3 > ",
"[ i.6 C } e 5 6 5 ( -.F < ; > 4 2 1 6 2 > 5 j K l s ~ K 6.6.c.g.i.6.} $.g.$.$.4...D j } ..X.0.d.a.C ~ K ..g.g.K d.d.i.} 5 4 6 3 ",
"F f 6 q F q q e K -.-.[ < % 9 6 2 1 2 > 5 s 5 5 b s r ..$.6.d.i.i.6.( d.$.~ K C W D ~ b 4.X.X.X.C -.$.-.0.0.K K W K ] ^ 5 ^ M 6 ",
"5 e F l 5 q $.-.K 6 $.f > < 7 6 < 1 < 1 6 5 5 q 5 K $.~ -.h.d.} -.-.-.-.y ~ $.4.X.W z ~ ~ 4.4.C 6.z.h.g.0.( K 6.( X.[ 6 6 -.4 > ",
"6 l b 6 j r $.-.e 1 e e , 5 6 4 ; & 2 4 5 5 2 b ~ K b ~ -.x.h.( $.6.g.j.K ~ $.6.X.b b e.q $.~ ..j.-.i.( ..g.$.l.-.u.$.6 q 6 3 * ",
"~ q 5 4 K -.-.C K s q 0 1 * 6 4 < * > 1 q q 6 q ~ q b q W -.u.$.( -.6...q C l ~ l D 4.X.D K q ~ 6.( ..i.C j [ ( W e 6.6 e q 5 1 ",
"b 5 5 8 j 6 ~ W q $.s q < , 5 > 4 < 1 1 5 ..~ l j q b q ~ X.s b W i.X.l } r l C j j D ! l } y 4.$.$.l ( e $.F K C 5 q 5 r q , - ",
"r 2 4 q C l 5 l 5 C q 9 6 2 < 5 5 1 4 5 2 l e j l s W q ....~ l -.l.D ~ W -.F X.~ 8 ~ W ~ C l z.d.~ l l 4.e [ K 9 4 ( ( r q 2 * ",
"l q b 2 5 r F b C q 5 6 6 1 4 6 < 1 5 0 9 8 q  .0 b K ~ b K K ~ 0.4.~ ~ 2 0 F K D l ~ R 4.4...( g.K 6 9 5 6 K C K C d.i.6.i.K 6 ",
"j ..s 2 q C C l ( 5 0 e 6 5 5 C 6 1 9 6 6 5 q K q ~ q $.q ..g.....b q 5 5 K X.$.( q b C K ..K q 6 l 2 8 - 2 6 q 5 C l.d.j.C s q ",
"6.$.g j s ( 4 2 6 8 5 q 5 5 8 l ( 5 5 6 5 5 q K l l 0 K X.q W 6.K j D 5 b W l W ( l l l 4.K ..K K 1 2 5 < 4 C K 2 6 g.d.K 6 l 5 ",
"-.-.-.q r F 5 2 7 6 4 b 5 2 5 q l 4 q 5 5 9 5 b 0 l b b b q 4.g.9...$.q ~ l q K 6.6 2 9 $.i.e 0.x.~ 6 , * 2 1 1 4 C 0.6.q l W K ",
"-.-.-.q 9 i.( r l 5 5 0 5 2 5 5 5 8 4 6 5 5 5 5 4 l s s ~ W K 4...6.6.q b R D X.8 1 5 5 C ( s q K l.4 4 6 6 = ; 1 l 9.q 2 -.C 6 ",
"-.6.-.K 7 4.6 q l 6 6 5 2 1 5 2 5 2 8 5 6 5 5 5 6 j q  .$.K 4.( $.x.u. .6.6.4.6.5 5 s 4 2 C l F q $.4 2 1 5 * < < 1 5 4 2 ;.l * ",
"$.-.-.( f -.f 5 4 l 8 6 2 1 b 5 5 5 2 5 5 6 5 5 5 q q ~ $.$.w.g.x.g.9.K ~ D ..j b 8 4 6 y ( 6 } e q 5 > - 1 * 4 1 * < = < 6 5 @ ",
"9.$.$.h -.[ i.y 5 5 5 6 0 6 K 9 5 5 4 5 4 5 5 6 5 q 6 6 W d.d.x.h.c.w.X...~ ~ l ..$.5 5 6 $.j $.$.4 6 2 < < < 5 4 * 4 * - C 4 $ ",
"e e ( h ( [ [ C ~ 8 2 9 l 0 F C 6 5 5 5 5 5 6 5 q q s q $.z.d.d.d.z.g.X.4.0.6.K 9.$.6 6 2 ~ $.q  .5 q s 5 < 2 6 1 < 5 ; < C - 9 ",
"> , q r e [ q 6 q 1 5 5 Q 5 l l C l 6 5 5 5 6 5 q q $.-.l.z.u.x.c.z.l.~ ~ 0.9.$.} $.K h 5 e q 2 q I 6 ~ l 9 9 5 4 4 5 < @ = < 4 ",
"- - 6 2 6 C C q l 5 5 5 M C 9 5 W q 5 6 6 0 q 5 0 q -.l.z.z.l.j.g.g.u...~ ~ ~ K f K ( y , 6 2 0 q q q 1 C ( 2 5 2 = < < X @ 1 = "
};
